<?xml version="1.0" encoding="UTF-8" standalone="no"?>
<svg width="1139px" height="1139px" viewBox="0 0 1139 1139" version="1.1" xmlns="http://www.w3.org/2000/svg" xmlns:xlink="http://www.w3.org/1999/xlink" style="background: #F4F4F4;">
    <!-- Generator: Sketch 46.2 (44496) - http://www.bohemiancoding.com/sketch -->
    <title>Slice</title>
    <desc>Created with Sketch.</desc>
    <defs></defs>
    <g id="Page-1" stroke="none" stroke-width="1" fill="none" fill-rule="evenodd">
        <g id="Group" transform="translate(477.861086, 551.221129) rotate(12.000000) translate(-477.861086, -551.221129) translate(-106.138914, -107.278871)">
            <polygon id="Path-5" fill="#D8D8D8" points="476.772435 838.092271 367.286397 726.286397 389.070312 703.671875 367.830148 680.111874 408.219711 639.72231 434.680439 666.183038 601.894243 498.969233 382.727259 498.969233 145.721933 735.974559 338.355452 928.608078 338.355452 994.069715 423.418902 994.069715 470.695827 946.792789"></polygon>
            <path d="M371.5,685.5 L412.69466,644.30534" id="Line-2" stroke="#D8D8D8" stroke-width="4" stroke-linecap="square"></path>
            <path d="M376.5,693.5 L417.69466,652.30534" id="Line-2" stroke="#D8D8D8" stroke-width="4" stroke-linecap="square"></path>
            <path d="M384.5,698.5 L425.69466,657.30534" id="Line-2" stroke="#D8D8D8" stroke-width="4" stroke-linecap="square"></path>
            <path d="M391.5,704.5 L432.69466,663.30534" id="Line-2" stroke="#D8D8D8" stroke-width="4" stroke-linecap="square"></path>
            <path d="M347.5,747.5 L388.69466,706.30534" id="Line-2" stroke="#D8D8D8" stroke-width="4" stroke-linecap="square"></path>
            <path d="M349.5,747.5 L390.69466,706.30534" id="Line-2" stroke="#D8D8D8" stroke-width="4" stroke-linecap="square"></path>
            <path d="M1166,74.5 L1166,1316.0145" id="Line" stroke="#979797" stroke-width="10" stroke-linecap="square"></path>
            <rect id="Rectangle" fill="#3494E6" x="808" y="0" width="186" height="643"></rect>
            <rect id="Rectangle" fill="#3494E6" x="808" y="734" width="186" height="577"></rect>
            <text id="38" transform="translate(903.500000, 871.000000) rotate(-90.000000) translate(-903.500000, -871.000000) " font-family="HelveticaNeue, Helvetica Neue" font-size="58" font-weight="normal" fill="#FFFFFF">
                <tspan x="871.504" y="892.5">38</tspan>
            </text>
            <text id="40" transform="translate(903.500000, 531.000000) rotate(-90.000000) translate(-903.500000, -531.000000) " font-family="HelveticaNeue, Helvetica Neue" font-size="58" font-weight="normal" fill="#FFFFFF">
                <tspan x="871.504" y="552.5">40</tspan>
            </text>
            <path d="M567.152,680.29 L570.932,680.29 C570.876,678.637992 570.561003,677.217006 569.987,676.027 C569.412997,674.836994 568.629005,673.850004 567.635,673.066 C566.640995,672.281996 565.486007,671.708002 564.17,671.344 C562.853993,670.979998 561.426008,670.798 559.886,670.798 C558.513993,670.798 557.177007,670.972998 555.875,671.323 C554.572993,671.673002 553.411005,672.204996 552.389,672.919 C551.366995,673.633004 550.548003,674.542994 549.932,675.649 C549.315997,676.755006 549.008,678.063992 549.008,679.576 C549.008,680.948007 549.280997,682.088995 549.827,682.999 C550.373003,683.909005 551.100995,684.650997 552.011,685.225 C552.921005,685.799003 553.949994,686.260998 555.098,686.611 C556.246006,686.961002 557.414994,687.268999 558.605,687.535 C559.795006,687.801001 560.963994,688.059999 562.112,688.312 C563.260006,688.564001 564.288995,688.892998 565.199,689.299 C566.109005,689.705002 566.836997,690.229997 567.383,690.874 C567.929003,691.518003 568.202,692.357995 568.202,693.394 C568.202,694.486005 567.978002,695.381996 567.53,696.082 C567.081998,696.782003 566.494004,697.334998 565.766,697.741 C565.037996,698.147002 564.219005,698.433999 563.309,698.602 C562.398995,698.770001 561.496004,698.854 560.6,698.854 C559.479994,698.854 558.388005,698.714001 557.324,698.434 C556.259995,698.153999 555.329004,697.720003 554.531,697.132 C553.732996,696.543997 553.089002,695.795005 552.599,694.885 C552.108998,693.974995 551.864,692.890006 551.864,691.63 L548.084,691.63 C548.084,693.450009 548.412997,695.024993 549.071,696.355 C549.729003,697.685007 550.624994,698.776996 551.759,699.631 C552.893006,700.485004 554.208993,701.121998 555.707,701.542 C557.205007,701.962002 558.793992,702.172 560.474,702.172 C561.846007,702.172 563.224993,702.011002 564.611,701.689 C565.997007,701.366998 567.249994,700.849004 568.37,700.135 C569.490006,699.420996 570.406996,698.497006 571.121,697.363 C571.835004,696.228994 572.192,694.864008 572.192,693.268 C572.192,691.783993 571.919003,690.552005 571.373,689.572 C570.826997,688.591995 570.099005,687.780003 569.189,687.136 C568.278995,686.491997 567.250006,685.981002 566.102,685.603 C564.953994,685.224998 563.785006,684.896001 562.595,684.616 C561.404994,684.335999 560.236006,684.077001 559.088,683.839 C557.939994,683.600999 556.911005,683.300002 556.001,682.936 C555.090995,682.571998 554.363003,682.103003 553.817,681.529 C553.270997,680.954997 552.998,680.206005 552.998,679.282 C552.998,678.301995 553.186998,677.483003 553.565,676.825 C553.943002,676.166997 554.446997,675.642002 555.077,675.25 C555.707003,674.857998 556.427996,674.578001 557.24,674.41 C558.052004,674.241999 558.877996,674.158 559.718,674.158 C561.79001,674.158 563.490993,674.640995 564.821,675.607 C566.151007,676.573005 566.927999,678.133989 567.152,680.29 Z M591.176,686.758 L594.872,686.758 C594.731999,685.469994 594.396003,684.357005 593.864,683.419 C593.331997,682.480995 592.653004,681.704003 591.827,681.088 C591.000996,680.471997 590.049005,680.017001 588.971,679.723 C587.892995,679.428999 586.738006,679.282 585.506,679.282 C583.797991,679.282 582.300006,679.582997 581.012,680.185 C579.723994,680.787003 578.653004,681.612995 577.799,682.663 C576.944996,683.713005 576.308002,684.944993 575.888,686.359 C575.467998,687.773007 575.258,689.291992 575.258,690.916 C575.258,692.540008 575.474998,694.030993 575.909,695.389 C576.343002,696.747007 576.986996,697.915995 577.841,698.896 C578.695004,699.876005 579.758994,700.631997 581.033,701.164 C582.307006,701.696003 583.769992,701.962 585.422,701.962 C588.194014,701.962 590.384992,701.234007 591.995,699.778 C593.605008,698.321993 594.605998,696.250013 594.998,693.562 L591.344,693.562 C591.119999,695.242008 590.511005,696.543995 589.517,697.468 C588.522995,698.392005 587.144009,698.854 585.38,698.854 C584.259994,698.854 583.294004,698.630002 582.482,698.182 C581.669996,697.733998 581.012003,697.139004 580.508,696.397 C580.003997,695.654996 579.633001,694.808005 579.395,693.856 C579.156999,692.903995 579.038,691.924005 579.038,690.916 C579.038,689.823995 579.149999,688.767005 579.374,687.745 C579.598001,686.722995 579.968997,685.820004 580.487,685.036 C581.005003,684.251996 581.697996,683.622002 582.566,683.146 C583.434004,682.669998 584.511994,682.432 585.8,682.432 C587.312008,682.432 588.515996,682.809996 589.412,683.566 C590.308004,684.322004 590.895999,685.385993 591.176,686.758 Z M598.988,671.512 L598.988,701.5 L602.558,701.5 L602.558,689.236 C602.558,688.255995 602.690999,687.353004 602.957,686.527 C603.223001,685.700996 603.621997,684.980003 604.154,684.364 C604.686003,683.747997 605.350996,683.272002 606.149,682.936 C606.947004,682.599998 607.891995,682.432 608.984,682.432 C610.356007,682.432 611.433996,682.823996 612.218,683.608 C613.002004,684.392004 613.394,685.455993 613.394,686.8 L613.394,701.5 L616.964,701.5 L616.964,687.22 C616.964,686.043994 616.845001,684.973005 616.607,684.007 C616.368999,683.040995 615.956003,682.208003 615.368,681.508 C614.779997,680.807996 614.010005,680.262002 613.058,679.87 C612.105995,679.477998 610.916007,679.282 609.488,679.282 C608.843997,679.282 608.179003,679.351999 607.493,679.492 C606.806997,679.632001 606.149003,679.848999 605.519,680.143 C604.888997,680.437001 604.322003,680.814998 603.818,681.277 C603.313997,681.739002 602.922001,682.305997 602.642,682.978 L602.558,682.978 L602.558,671.512 L598.988,671.512 Z M626.12,675.88 L626.12,671.512 L622.55,671.512 L622.55,675.88 L626.12,675.88 Z M622.55,679.786 L622.55,701.5 L626.12,701.5 L626.12,679.786 L622.55,679.786 Z M631.664,679.786 L631.664,701.5 L635.234,701.5 L635.234,689.236 C635.234,688.255995 635.366999,687.353004 635.633,686.527 C635.899001,685.700996 636.297997,684.980003 636.83,684.364 C637.362003,683.747997 638.026996,683.272002 638.825,682.936 C639.623004,682.599998 640.567995,682.432 641.66,682.432 C643.032007,682.432 644.109996,682.823996 644.894,683.608 C645.678004,684.392004 646.07,685.455993 646.07,686.8 L646.07,701.5 L649.64,701.5 L649.64,687.22 C649.64,686.043994 649.521001,684.973005 649.283,684.007 C649.044999,683.040995 648.632003,682.208003 648.044,681.508 C647.455997,680.807996 646.686005,680.262002 645.734,679.87 C644.781995,679.477998 643.592007,679.282 642.164,679.282 C638.943984,679.282 636.592007,680.597987 635.108,683.23 L635.024,683.23 L635.024,679.786 L631.664,679.786 Z M655.226,671.512 L655.226,701.5 L658.796,701.5 L658.796,693.268 L662.156,690.16 L669.59,701.5 L674.126,701.5 L664.886,687.682 L673.496,679.786 L668.708,679.786 L658.796,689.278 L658.796,671.512 L655.226,671.512 Z M691.892,688.564 C691.836,687.723996 691.647002,686.926004 691.325,686.17 C691.002998,685.413996 690.569003,684.763003 690.023,684.217 C689.476997,683.670997 688.833004,683.237002 688.091,682.915 C687.348996,682.592998 686.530004,682.432 685.634,682.432 C684.709995,682.432 683.877004,682.592998 683.135,682.915 C682.392996,683.237002 681.756003,683.677997 681.224,684.238 C680.691997,684.798003 680.272002,685.448996 679.964,686.191 C679.655998,686.933004 679.474,687.723996 679.418,688.564 L691.892,688.564 Z M695.336,694.612 C694.859998,697.048012 693.810008,698.881994 692.186,700.114 C690.561992,701.346006 688.518012,701.962 686.054,701.962 C684.317991,701.962 682.813006,701.682003 681.539,701.122 C680.264994,700.561997 679.194004,699.778005 678.326,698.77 C677.457996,697.761995 676.807002,696.558007 676.373,695.158 C675.938998,693.757993 675.694,692.232008 675.638,690.58 C675.638,688.927992 675.889997,687.416007 676.394,686.044 C676.898003,684.671993 677.604995,683.482005 678.515,682.474 C679.425005,681.465995 680.502994,680.682003 681.749,680.122 C682.995006,679.561997 684.359993,679.282 685.844,679.282 C687.77601,679.282 689.378994,679.680996 690.653,680.479 C691.927006,681.277004 692.948996,682.291994 693.719,683.524 C694.489004,684.756006 695.020999,686.099993 695.315,687.556 C695.609001,689.012007 695.728,690.397993 695.672,691.714 L679.418,691.714 C679.39,692.666005 679.501999,693.568996 679.754,694.423 C680.006001,695.277004 680.411997,696.032997 680.972,696.691 C681.532003,697.349003 682.245996,697.873998 683.114,698.266 C683.982004,698.658002 685.003994,698.854 686.18,698.854 C687.692008,698.854 688.930995,698.504003 689.897,697.804 C690.863005,697.103996 691.499998,696.040007 691.808,694.612 L695.336,694.612 Z M699.578,671.512 L699.578,701.5 L703.148,701.5 L703.148,671.512 L699.578,671.512 Z M710.876,694.654 L707.306,694.654 C707.362,695.998007 707.641997,697.138995 708.146,698.077 C708.650003,699.015005 709.321996,699.770997 710.162,700.345 C711.002004,700.919003 711.967995,701.331999 713.06,701.584 C714.152005,701.836001 715.299994,701.962 716.504,701.962 C717.596005,701.962 718.694994,701.857001 719.801,701.647 C720.907006,701.436999 721.900996,701.066003 722.783,700.534 C723.665004,700.001997 724.378997,699.302004 724.925,698.434 C725.471003,697.565996 725.744,696.474007 725.744,695.158 C725.744,694.121995 725.541002,693.254003 725.135,692.554 C724.728998,691.853996 724.197003,691.273002 723.539,690.811 C722.880997,690.348998 722.125004,689.978001 721.271,689.698 C720.416996,689.417999 719.542004,689.180001 718.646,688.984 C717.805996,688.787999 716.966004,688.599001 716.126,688.417 C715.285996,688.234999 714.530003,688.011001 713.858,687.745 C713.185997,687.478999 712.633002,687.143002 712.199,686.737 C711.764998,686.330998 711.548,685.820003 711.548,685.204 C711.548,684.643997 711.687999,684.189002 711.968,683.839 C712.248001,683.488998 712.611998,683.209001 713.06,682.999 C713.508002,682.788999 714.004997,682.642 714.551,682.558 C715.097003,682.474 715.635997,682.432 716.168,682.432 C716.756003,682.432 717.336997,682.494999 717.911,682.621 C718.485003,682.747001 719.009998,682.949999 719.486,683.23 C719.962002,683.510001 720.353998,683.880998 720.662,684.343 C720.970002,684.805002 721.152,685.385996 721.208,686.086 L724.778,686.086 C724.694,684.769993 724.414002,683.671004 723.938,682.789 C723.461998,681.906996 722.825004,681.207003 722.027,680.689 C721.228996,680.170997 720.312005,679.807001 719.276,679.597 C718.239995,679.386999 717.106006,679.282 715.874,679.282 C714.921995,679.282 713.963005,679.400999 712.997,679.639 C712.030995,679.877001 711.163004,680.240998 710.393,680.731 C709.622996,681.221002 708.993002,681.857996 708.503,682.642 C708.012998,683.426004 707.768,684.363995 707.768,685.456 C707.768,686.856007 708.117997,687.947996 708.818,688.732 C709.518003,689.516004 710.392995,690.124998 711.443,690.559 C712.493005,690.993002 713.633994,691.328999 714.866,691.567 C716.098006,691.805001 717.238995,692.070999 718.289,692.365 C719.339005,692.659001 720.213997,693.043998 720.914,693.52 C721.614003,693.996002 721.964,694.695995 721.964,695.62 C721.964,696.292003 721.796002,696.844998 721.46,697.279 C721.123998,697.713002 720.697003,698.041999 720.179,698.266 C719.660997,698.490001 719.094003,698.644 718.478,698.728 C717.861997,698.812 717.274003,698.854 716.714,698.854 C715.985996,698.854 715.279003,698.784001 714.593,698.644 C713.906997,698.503999 713.291003,698.273002 712.745,697.951 C712.198997,697.628998 711.758002,697.195003 711.422,696.649 C711.085998,696.102997 710.904,695.438004 710.876,694.654 Z M734.648,679.786 L734.648,673.276 L731.078,673.276 L731.078,679.786 L727.382,679.786 L727.382,682.936 L731.078,682.936 L731.078,696.754 C731.078,697.762005 731.175999,698.573997 731.372,699.19 C731.568001,699.806003 731.868998,700.281998 732.275,700.618 C732.681002,700.954002 733.212997,701.184999 733.871,701.311 C734.529003,701.437001 735.319995,701.5 736.244,701.5 L738.974,701.5 L738.974,698.35 L737.336,698.35 C736.775997,698.35 736.321002,698.329 735.971,698.287 C735.620998,698.245 735.348001,698.154001 735.152,698.014 C734.955999,697.873999 734.823,697.678001 734.753,697.426 C734.683,697.173999 734.648,696.838002 734.648,696.418 L734.648,682.936 L738.974,682.936 L738.974,679.786 L734.648,679.786 Z M742.796,679.786 L742.796,701.5 L746.366,701.5 L746.366,691.84 C746.366,690.439993 746.505999,689.201005 746.786,688.123 C747.066001,687.044995 747.513997,686.128004 748.13,685.372 C748.746003,684.615996 749.557995,684.042002 750.566,683.65 C751.574005,683.257998 752.791993,683.062 754.22,683.062 L754.22,679.282 C752.28799,679.226 750.692006,679.617996 749.432,680.458 C748.171994,681.298004 747.108004,682.599991 746.24,684.364 L746.156,684.364 L746.156,679.786 L742.796,679.786 Z M776.144,701.416 C775.527997,701.780002 774.674005,701.962 773.582,701.962 C772.657995,701.962 771.923003,701.703003 771.377,701.185 C770.830997,700.666997 770.558,699.820006 770.558,698.644 C769.577995,699.820006 768.437007,700.666997 767.135,701.185 C765.832993,701.703003 764.426008,701.962 762.914,701.962 C761.933995,701.962 761.003004,701.850001 760.121,701.626 C759.238996,701.401999 758.476003,701.052002 757.832,700.576 C757.187997,700.099998 756.677002,699.477004 756.299,698.707 C755.920998,697.936996 755.732,697.006005 755.732,695.914 C755.732,694.681994 755.941998,693.674004 756.362,692.89 C756.782002,692.105996 757.334997,691.469002 758.021,690.979 C758.707003,690.488998 759.490996,690.118001 760.373,689.866 C761.255004,689.613999 762.157995,689.404001 763.082,689.236 C764.062005,689.039999 764.992996,688.893 765.875,688.795 C766.757004,688.697 767.533997,688.557001 768.206,688.375 C768.878003,688.192999 769.409998,687.927002 769.802,687.577 C770.194002,687.226998 770.39,686.716003 770.39,686.044 C770.39,685.259996 770.243001,684.630002 769.949,684.154 C769.654999,683.677998 769.277002,683.314001 768.815,683.062 C768.352998,682.809999 767.835003,682.642 767.261,682.558 C766.686997,682.474 766.120003,682.432 765.56,682.432 C764.047992,682.432 762.788005,682.718997 761.78,683.293 C760.771995,683.867003 760.226,684.951992 760.142,686.548 L756.572,686.548 C756.628,685.203993 756.907997,684.070005 757.412,683.146 C757.916003,682.221995 758.587996,681.473003 759.428,680.899 C760.268004,680.324997 761.226995,679.912001 762.305,679.66 C763.383005,679.407999 764.537994,679.282 765.77,679.282 C766.750005,679.282 767.722995,679.351999 768.689,679.492 C769.655005,679.632001 770.529996,679.918998 771.314,680.353 C772.098004,680.787002 772.727998,681.395996 773.204,682.18 C773.680002,682.964004 773.918,683.985994 773.918,685.246 L773.918,696.418 C773.918,697.258004 773.967,697.873998 774.065,698.266 C774.163,698.658002 774.491997,698.854 775.052,698.854 C775.360002,698.854 775.723998,698.784001 776.144,698.644 L776.144,701.416 Z M770.348,690.286 C769.899998,690.622002 769.312004,690.866999 768.584,691.021 C767.855996,691.175001 767.093004,691.301 766.295,691.399 C765.496996,691.497 764.692004,691.608999 763.88,691.735 C763.067996,691.861001 762.340003,692.063999 761.696,692.344 C761.051997,692.624001 760.527002,693.022997 760.121,693.541 C759.714998,694.059003 759.512,694.765996 759.512,695.662 C759.512,696.250003 759.630999,696.746998 759.869,697.153 C760.107001,697.559002 760.414998,697.887999 760.793,698.14 C761.171002,698.392001 761.611997,698.573999 762.116,698.686 C762.620003,698.798001 763.151997,698.854 763.712,698.854 C764.888006,698.854 765.895996,698.693002 766.736,698.371 C767.576004,698.048998 768.261997,697.643002 768.794,697.153 C769.326003,696.662998 769.717999,696.131003 769.97,695.557 C770.222001,694.982997 770.348,694.444003 770.348,693.94 L770.348,690.286 Z M779.462,679.198 L779.462,701.5 L783.032,701.5 L783.032,679.828 C783.032,678.651994 783.157999,677.686004 783.41,676.93 C783.662001,676.173996 784.004998,675.579002 784.439,675.145 C784.873002,674.710998 785.397997,674.403001 786.014,674.221 C786.630003,674.038999 787.301996,673.948 788.03,673.948 C788.702003,673.948 789.317997,674.073999 789.878,674.326 C790.438003,674.578001 790.927998,674.913998 791.348,675.334 C791.768002,675.754002 792.096999,676.250997 792.335,676.825 C792.573001,677.399003 792.692,678.021997 792.692,678.694 C792.692,679.646005 792.517002,680.450997 792.167,681.109 C791.816998,681.767003 791.348003,682.284998 790.76,682.663 C790.171997,683.041002 789.493004,683.299999 788.723,683.44 C787.952996,683.580001 787.148004,683.622 786.308,683.566 L786.308,686.422 C787.484006,686.422 788.547995,686.491999 789.5,686.632 C790.452005,686.772001 791.263997,687.065998 791.936,687.514 C792.608003,687.962002 793.125998,688.598996 793.49,689.425 C793.854002,690.251004 794.036,691.349993 794.036,692.722 C794.036,694.570009 793.469006,696.053994 792.335,697.174 C791.200994,698.294006 789.66801,698.854 787.736,698.854 C787.511999,698.854 787.274001,698.847 787.022,698.833 C786.769999,698.819 786.532001,698.784 786.308,698.728 L786.308,701.794 C786.868003,701.906001 787.469997,701.962 788.114,701.962 C789.542007,701.962 790.850994,701.731002 792.041,701.269 C793.231006,700.806998 794.252996,700.149004 795.107,699.295 C795.961004,698.440996 796.625998,697.419006 797.102,696.229 C797.578002,695.038994 797.816,693.716007 797.816,692.26 C797.816,691.335995 797.697001,690.447004 797.459,689.593 C797.220999,688.738996 796.864002,687.976003 796.388,687.304 C795.911998,686.631997 795.317004,686.065002 794.603,685.603 C793.888996,685.140998 793.056005,684.854001 792.104,684.742 L792.104,684.658 C793.700008,684.153997 794.826997,683.342006 795.485,682.222 C796.143003,681.101994 796.472,679.744008 796.472,678.148 C796.472,676.915994 796.213003,675.845005 795.695,674.935 C795.176997,674.024995 794.505004,673.262003 793.679,672.646 C792.852996,672.029997 791.922005,671.568002 790.886,671.26 C789.849995,670.951998 788.814005,670.798 787.778,670.798 C786.517994,670.798 785.377005,671.000998 784.355,671.407 C783.332995,671.813002 782.458004,672.386996 781.73,673.129 C781.001996,673.871004 780.442002,674.752995 780.05,675.775 C779.657998,676.797005 779.462,677.937994 779.462,679.198 Z M817.892,688.564 C817.836,687.723996 817.647002,686.926004 817.325,686.17 C817.002998,685.413996 816.569003,684.763003 816.023,684.217 C815.476997,683.670997 814.833004,683.237002 814.091,682.915 C813.348996,682.592998 812.530004,682.432 811.634,682.432 C810.709995,682.432 809.877004,682.592998 809.135,682.915 C808.392996,683.237002 807.756003,683.677997 807.224,684.238 C806.691997,684.798003 806.272002,685.448996 805.964,686.191 C805.655998,686.933004 805.474,687.723996 805.418,688.564 L817.892,688.564 Z M821.336,694.612 C820.859998,697.048012 819.810008,698.881994 818.186,700.114 C816.561992,701.346006 814.518012,701.962 812.054,701.962 C810.317991,701.962 808.813006,701.682003 807.539,701.122 C806.264994,700.561997 805.194004,699.778005 804.326,698.77 C803.457996,697.761995 802.807002,696.558007 802.373,695.158 C801.938998,693.757993 801.694,692.232008 801.638,690.58 C801.638,688.927992 801.889997,687.416007 802.394,686.044 C802.898003,684.671993 803.604995,683.482005 804.515,682.474 C805.425005,681.465995 806.502994,680.682003 807.749,680.122 C808.995006,679.561997 810.359993,679.282 811.844,679.282 C813.77601,679.282 815.378994,679.680996 816.653,680.479 C817.927006,681.277004 818.948996,682.291994 819.719,683.524 C820.489004,684.756006 821.020999,686.099993 821.315,687.556 C821.609001,689.012007 821.728,690.397993 821.672,691.714 L805.418,691.714 C805.39,692.666005 805.501999,693.568996 805.754,694.423 C806.006001,695.277004 806.411997,696.032997 806.972,696.691 C807.532003,697.349003 808.245996,697.873998 809.114,698.266 C809.982004,698.658002 811.003994,698.854 812.18,698.854 C813.692008,698.854 814.930995,698.504003 815.897,697.804 C816.863005,697.103996 817.499998,696.040007 817.808,694.612 L821.336,694.612 Z M960.062,680.29 L963.842,680.29 C963.786,678.637992 963.471003,677.217006 962.897,676.027 C962.322997,674.836994 961.539005,673.850004 960.545,673.066 C959.550995,672.281996 958.396007,671.708002 957.08,671.344 C955.763993,670.979998 954.336008,670.798 952.796,670.798 C951.423993,670.798 950.087007,670.972998 948.785,671.323 C947.482993,671.673002 946.321005,672.204996 945.299,672.919 C944.276995,673.633004 943.458003,674.542994 942.842,675.649 C942.225997,676.755006 941.918,678.063992 941.918,679.576 C941.918,680.948007 942.190997,682.088995 942.737,682.999 C943.283003,683.909005 944.010995,684.650997 944.921,685.225 C945.831005,685.799003 946.859994,686.260998 948.008,686.611 C949.156006,686.961002 950.324994,687.268999 951.515,687.535 C952.705006,687.801001 953.873994,688.059999 955.022,688.312 C956.170006,688.564001 957.198995,688.892998 958.109,689.299 C959.019005,689.705002 959.746997,690.229997 960.293,690.874 C960.839003,691.518003 961.112,692.357995 961.112,693.394 C961.112,694.486005 960.888002,695.381996 960.44,696.082 C959.991998,696.782003 959.404004,697.334998 958.676,697.741 C957.947996,698.147002 957.129005,698.433999 956.219,698.602 C955.308995,698.770001 954.406004,698.854 953.51,698.854 C952.389994,698.854 951.298005,698.714001 950.234,698.434 C949.169995,698.153999 948.239004,697.720003 947.441,697.132 C946.642996,696.543997 945.999002,695.795005 945.509,694.885 C945.018998,693.974995 944.774,692.890006 944.774,691.63 L940.994,691.63 C940.994,693.450009 941.322997,695.024993 941.981,696.355 C942.639003,697.685007 943.534994,698.776996 944.669,699.631 C945.803006,700.485004 947.118993,701.121998 948.617,701.542 C950.115007,701.962002 951.703992,702.172 953.384,702.172 C954.756007,702.172 956.134993,702.011002 957.521,701.689 C958.907007,701.366998 960.159994,700.849004 961.28,700.135 C962.400006,699.420996 963.316996,698.497006 964.031,697.363 C964.745004,696.228994 965.102,694.864008 965.102,693.268 C965.102,691.783993 964.829003,690.552005 964.283,689.572 C963.736997,688.591995 963.009005,687.780003 962.099,687.136 C961.188995,686.491997 960.160006,685.981002 959.012,685.603 C957.863994,685.224998 956.695006,684.896001 955.505,684.616 C954.314994,684.335999 953.146006,684.077001 951.998,683.839 C950.849994,683.600999 949.821005,683.300002 948.911,682.936 C948.000995,682.571998 947.273003,682.103003 946.727,681.529 C946.180997,680.954997 945.908,680.206005 945.908,679.282 C945.908,678.301995 946.096998,677.483003 946.475,676.825 C946.853002,676.166997 947.356997,675.642002 947.987,675.25 C948.617003,674.857998 949.337996,674.578001 950.15,674.41 C950.962004,674.241999 951.787996,674.158 952.628,674.158 C954.70001,674.158 956.400993,674.640995 957.731,675.607 C959.061007,676.573005 959.837999,678.133989 960.062,680.29 Z M984.086,686.758 L987.782,686.758 C987.641999,685.469994 987.306003,684.357005 986.774,683.419 C986.241997,682.480995 985.563004,681.704003 984.737,681.088 C983.910996,680.471997 982.959005,680.017001 981.881,679.723 C980.802995,679.428999 979.648006,679.282 978.416,679.282 C976.707991,679.282 975.210006,679.582997 973.922,680.185 C972.633994,680.787003 971.563004,681.612995 970.709,682.663 C969.854996,683.713005 969.218002,684.944993 968.798,686.359 C968.377998,687.773007 968.168,689.291992 968.168,690.916 C968.168,692.540008 968.384998,694.030993 968.819,695.389 C969.253002,696.747007 969.896996,697.915995 970.751,698.896 C971.605004,699.876005 972.668994,700.631997 973.943,701.164 C975.217006,701.696003 976.679992,701.962 978.332,701.962 C981.104014,701.962 983.294992,701.234007 984.905,699.778 C986.515008,698.321993 987.515998,696.250013 987.908,693.562 L984.254,693.562 C984.029999,695.242008 983.421005,696.543995 982.427,697.468 C981.432995,698.392005 980.054009,698.854 978.29,698.854 C977.169994,698.854 976.204004,698.630002 975.392,698.182 C974.579996,697.733998 973.922003,697.139004 973.418,696.397 C972.913997,695.654996 972.543001,694.808005 972.305,693.856 C972.066999,692.903995 971.948,691.924005 971.948,690.916 C971.948,689.823995 972.059999,688.767005 972.284,687.745 C972.508001,686.722995 972.878997,685.820004 973.397,685.036 C973.915003,684.251996 974.607996,683.622002 975.476,683.146 C976.344004,682.669998 977.421994,682.432 978.71,682.432 C980.222008,682.432 981.425996,682.809996 982.322,683.566 C983.218004,684.322004 983.805999,685.385993 984.086,686.758 Z M991.898,671.512 L991.898,701.5 L995.468,701.5 L995.468,689.236 C995.468,688.255995 995.600999,687.353004 995.867,686.527 C996.133001,685.700996 996.531997,684.980003 997.064,684.364 C997.596003,683.747997 998.260996,683.272002 999.059,682.936 C999.857004,682.599998 1000.80199,682.432 1001.894,682.432 C1003.26601,682.432 1004.344,682.823996 1005.128,683.608 C1005.912,684.392004 1006.304,685.455993 1006.304,686.8 L1006.304,701.5 L1009.874,701.5 L1009.874,687.22 C1009.874,686.043994 1009.755,684.973005 1009.517,684.007 C1009.279,683.040995 1008.866,682.208003 1008.278,681.508 C1007.69,680.807996 1006.92,680.262002 1005.968,679.87 C1005.016,679.477998 1003.82601,679.282 1002.398,679.282 C1001.754,679.282 1001.089,679.351999 1000.403,679.492 C999.716997,679.632001 999.059003,679.848999 998.429,680.143 C997.798997,680.437001 997.232003,680.814998 996.728,681.277 C996.223997,681.739002 995.832001,682.305997 995.552,682.978 L995.468,682.978 L995.468,671.512 L991.898,671.512 Z M1019.03,675.88 L1019.03,671.512 L1015.46,671.512 L1015.46,675.88 L1019.03,675.88 Z M1015.46,679.786 L1015.46,701.5 L1019.03,701.5 L1019.03,679.786 L1015.46,679.786 Z M1024.574,679.786 L1024.574,701.5 L1028.144,701.5 L1028.144,689.236 C1028.144,688.255995 1028.277,687.353004 1028.543,686.527 C1028.809,685.700996 1029.208,684.980003 1029.74,684.364 C1030.272,683.747997 1030.937,683.272002 1031.735,682.936 C1032.533,682.599998 1033.47799,682.432 1034.57,682.432 C1035.94201,682.432 1037.02,682.823996 1037.804,683.608 C1038.588,684.392004 1038.98,685.455993 1038.98,686.8 L1038.98,701.5 L1042.55,701.5 L1042.55,687.22 C1042.55,686.043994 1042.431,684.973005 1042.193,684.007 C1041.955,683.040995 1041.542,682.208003 1040.954,681.508 C1040.366,680.807996 1039.596,680.262002 1038.644,679.87 C1037.692,679.477998 1036.50201,679.282 1035.074,679.282 C1031.85398,679.282 1029.50201,680.597987 1028.018,683.23 L1027.934,683.23 L1027.934,679.786 L1024.574,679.786 Z M1048.136,671.512 L1048.136,701.5 L1051.706,701.5 L1051.706,693.268 L1055.066,690.16 L1062.5,701.5 L1067.036,701.5 L1057.796,687.682 L1066.406,679.786 L1061.618,679.786 L1051.706,689.278 L1051.706,671.512 L1048.136,671.512 Z M1084.802,688.564 C1084.746,687.723996 1084.557,686.926004 1084.235,686.17 C1083.913,685.413996 1083.479,684.763003 1082.933,684.217 C1082.387,683.670997 1081.743,683.237002 1081.001,682.915 C1080.259,682.592998 1079.44,682.432 1078.544,682.432 C1077.62,682.432 1076.787,682.592998 1076.045,682.915 C1075.303,683.237002 1074.666,683.677997 1074.134,684.238 C1073.602,684.798003 1073.182,685.448996 1072.874,686.191 C1072.566,686.933004 1072.384,687.723996 1072.328,688.564 L1084.802,688.564 Z M1088.246,694.612 C1087.77,697.048012 1086.72001,698.881994 1085.096,700.114 C1083.47199,701.346006 1081.42801,701.962 1078.964,701.962 C1077.22799,701.962 1075.72301,701.682003 1074.449,701.122 C1073.17499,700.561997 1072.104,699.778005 1071.236,698.77 C1070.368,697.761995 1069.717,696.558007 1069.283,695.158 C1068.849,693.757993 1068.604,692.232008 1068.548,690.58 C1068.548,688.927992 1068.8,687.416007 1069.304,686.044 C1069.808,684.671993 1070.515,683.482005 1071.425,682.474 C1072.335,681.465995 1073.41299,680.682003 1074.659,680.122 C1075.90501,679.561997 1077.26999,679.282 1078.754,679.282 C1080.68601,679.282 1082.28899,679.680996 1083.563,680.479 C1084.83701,681.277004 1085.859,682.291994 1086.629,683.524 C1087.399,684.756006 1087.931,686.099993 1088.225,687.556 C1088.519,689.012007 1088.638,690.397993 1088.582,691.714 L1072.328,691.714 C1072.3,692.666005 1072.412,693.568996 1072.664,694.423 C1072.916,695.277004 1073.322,696.032997 1073.882,696.691 C1074.442,697.349003 1075.156,697.873998 1076.024,698.266 C1076.892,698.658002 1077.91399,698.854 1079.09,698.854 C1080.60201,698.854 1081.841,698.504003 1082.807,697.804 C1083.773,697.103996 1084.41,696.040007 1084.718,694.612 L1088.246,694.612 Z M1092.488,671.512 L1092.488,701.5 L1096.058,701.5 L1096.058,671.512 L1092.488,671.512 Z M1103.786,694.654 L1100.216,694.654 C1100.272,695.998007 1100.552,697.138995 1101.056,698.077 C1101.56,699.015005 1102.232,699.770997 1103.072,700.345 C1103.912,700.919003 1104.87799,701.331999 1105.97,701.584 C1107.06201,701.836001 1108.20999,701.962 1109.414,701.962 C1110.50601,701.962 1111.60499,701.857001 1112.711,701.647 C1113.81701,701.436999 1114.811,701.066003 1115.693,700.534 C1116.575,700.001997 1117.289,699.302004 1117.835,698.434 C1118.381,697.565996 1118.654,696.474007 1118.654,695.158 C1118.654,694.121995 1118.451,693.254003 1118.045,692.554 C1117.639,691.853996 1117.107,691.273002 1116.449,690.811 C1115.791,690.348998 1115.035,689.978001 1114.181,689.698 C1113.327,689.417999 1112.452,689.180001 1111.556,688.984 C1110.716,688.787999 1109.876,688.599001 1109.036,688.417 C1108.196,688.234999 1107.44,688.011001 1106.768,687.745 C1106.096,687.478999 1105.543,687.143002 1105.109,686.737 C1104.675,686.330998 1104.458,685.820003 1104.458,685.204 C1104.458,684.643997 1104.598,684.189002 1104.878,683.839 C1105.158,683.488998 1105.522,683.209001 1105.97,682.999 C1106.418,682.788999 1106.915,682.642 1107.461,682.558 C1108.007,682.474 1108.546,682.432 1109.078,682.432 C1109.666,682.432 1110.247,682.494999 1110.821,682.621 C1111.395,682.747001 1111.92,682.949999 1112.396,683.23 C1112.872,683.510001 1113.264,683.880998 1113.572,684.343 C1113.88,684.805002 1114.062,685.385996 1114.118,686.086 L1117.688,686.086 C1117.604,684.769993 1117.324,683.671004 1116.848,682.789 C1116.372,681.906996 1115.735,681.207003 1114.937,680.689 C1114.139,680.170997 1113.22201,679.807001 1112.186,679.597 C1111.14999,679.386999 1110.01601,679.282 1108.784,679.282 C1107.832,679.282 1106.873,679.400999 1105.907,679.639 C1104.941,679.877001 1104.073,680.240998 1103.303,680.731 C1102.533,681.221002 1101.903,681.857996 1101.413,682.642 C1100.923,683.426004 1100.678,684.363995 1100.678,685.456 C1100.678,686.856007 1101.028,687.947996 1101.728,688.732 C1102.428,689.516004 1103.30299,690.124998 1104.353,690.559 C1105.40301,690.993002 1106.54399,691.328999 1107.776,691.567 C1109.00801,691.805001 1110.14899,692.070999 1111.199,692.365 C1112.24901,692.659001 1113.124,693.043998 1113.824,693.52 C1114.524,693.996002 1114.874,694.695995 1114.874,695.62 C1114.874,696.292003 1114.706,696.844998 1114.37,697.279 C1114.034,697.713002 1113.607,698.041999 1113.089,698.266 C1112.571,698.490001 1112.004,698.644 1111.388,698.728 C1110.772,698.812 1110.184,698.854 1109.624,698.854 C1108.896,698.854 1108.189,698.784001 1107.503,698.644 C1106.817,698.503999 1106.201,698.273002 1105.655,697.951 C1105.109,697.628998 1104.668,697.195003 1104.332,696.649 C1103.996,696.102997 1103.814,695.438004 1103.786,694.654 Z M1127.558,679.786 L1127.558,673.276 L1123.988,673.276 L1123.988,679.786 L1120.292,679.786 L1120.292,682.936 L1123.988,682.936 L1123.988,696.754 C1123.988,697.762005 1124.086,698.573997 1124.282,699.19 C1124.478,699.806003 1124.779,700.281998 1125.185,700.618 C1125.591,700.954002 1126.123,701.184999 1126.781,701.311 C1127.439,701.437001 1128.23,701.5 1129.154,701.5 L1131.884,701.5 L1131.884,698.35 L1130.246,698.35 C1129.686,698.35 1129.231,698.329 1128.881,698.287 C1128.531,698.245 1128.258,698.154001 1128.062,698.014 C1127.866,697.873999 1127.733,697.678001 1127.663,697.426 C1127.593,697.173999 1127.558,696.838002 1127.558,696.418 L1127.558,682.936 L1131.884,682.936 L1131.884,679.786 L1127.558,679.786 Z M1135.706,679.786 L1135.706,701.5 L1139.276,701.5 L1139.276,691.84 C1139.276,690.439993 1139.416,689.201005 1139.696,688.123 C1139.976,687.044995 1140.424,686.128004 1141.04,685.372 C1141.656,684.615996 1142.46799,684.042002 1143.476,683.65 C1144.48401,683.257998 1145.70199,683.062 1147.13,683.062 L1147.13,679.282 C1145.19799,679.226 1143.60201,679.617996 1142.342,680.458 C1141.08199,681.298004 1140.018,682.599991 1139.15,684.364 L1139.066,684.364 L1139.066,679.786 L1135.706,679.786 Z M1169.054,701.416 C1168.438,701.780002 1167.58401,701.962 1166.492,701.962 C1165.568,701.962 1164.833,701.703003 1164.287,701.185 C1163.741,700.666997 1163.468,699.820006 1163.468,698.644 C1162.488,699.820006 1161.34701,700.666997 1160.045,701.185 C1158.74299,701.703003 1157.33601,701.962 1155.824,701.962 C1154.844,701.962 1153.913,701.850001 1153.031,701.626 C1152.149,701.401999 1151.386,701.052002 1150.742,700.576 C1150.098,700.099998 1149.587,699.477004 1149.209,698.707 C1148.831,697.936996 1148.642,697.006005 1148.642,695.914 C1148.642,694.681994 1148.852,693.674004 1149.272,692.89 C1149.692,692.105996 1150.245,691.469002 1150.931,690.979 C1151.617,690.488998 1152.401,690.118001 1153.283,689.866 C1154.165,689.613999 1155.068,689.404001 1155.992,689.236 C1156.972,689.039999 1157.903,688.893 1158.785,688.795 C1159.667,688.697 1160.444,688.557001 1161.116,688.375 C1161.788,688.192999 1162.32,687.927002 1162.712,687.577 C1163.104,687.226998 1163.3,686.716003 1163.3,686.044 C1163.3,685.259996 1163.153,684.630002 1162.859,684.154 C1162.565,683.677998 1162.187,683.314001 1161.725,683.062 C1161.263,682.809999 1160.745,682.642 1160.171,682.558 C1159.597,682.474 1159.03,682.432 1158.47,682.432 C1156.95799,682.432 1155.69801,682.718997 1154.69,683.293 C1153.68199,683.867003 1153.136,684.951992 1153.052,686.548 L1149.482,686.548 C1149.538,685.203993 1149.818,684.070005 1150.322,683.146 C1150.826,682.221995 1151.498,681.473003 1152.338,680.899 C1153.178,680.324997 1154.13699,679.912001 1155.215,679.66 C1156.29301,679.407999 1157.44799,679.282 1158.68,679.282 C1159.66,679.282 1160.633,679.351999 1161.599,679.492 C1162.565,679.632001 1163.44,679.918998 1164.224,680.353 C1165.008,680.787002 1165.638,681.395996 1166.114,682.18 C1166.59,682.964004 1166.828,683.985994 1166.828,685.246 L1166.828,696.418 C1166.828,697.258004 1166.877,697.873998 1166.975,698.266 C1167.073,698.658002 1167.402,698.854 1167.962,698.854 C1168.27,698.854 1168.634,698.784001 1169.054,698.644 L1169.054,701.416 Z M1163.258,690.286 C1162.81,690.622002 1162.222,690.866999 1161.494,691.021 C1160.766,691.175001 1160.003,691.301 1159.205,691.399 C1158.407,691.497 1157.602,691.608999 1156.79,691.735 C1155.978,691.861001 1155.25,692.063999 1154.606,692.344 C1153.962,692.624001 1153.437,693.022997 1153.031,693.541 C1152.625,694.059003 1152.422,694.765996 1152.422,695.662 C1152.422,696.250003 1152.541,696.746998 1152.779,697.153 C1153.017,697.559002 1153.325,697.887999 1153.703,698.14 C1154.081,698.392001 1154.522,698.573999 1155.026,698.686 C1155.53,698.798001 1156.062,698.854 1156.622,698.854 C1157.79801,698.854 1158.806,698.693002 1159.646,698.371 C1160.486,698.048998 1161.172,697.643002 1161.704,697.153 C1162.236,696.662998 1162.628,696.131003 1162.88,695.557 C1163.132,694.982997 1163.258,694.444003 1163.258,693.94 L1163.258,690.286 Z M1172.372,679.198 L1172.372,701.5 L1175.942,701.5 L1175.942,679.828 C1175.942,678.651994 1176.068,677.686004 1176.32,676.93 C1176.572,676.173996 1176.915,675.579002 1177.349,675.145 C1177.783,674.710998 1178.308,674.403001 1178.924,674.221 C1179.54,674.038999 1180.212,673.948 1180.94,673.948 C1181.612,673.948 1182.228,674.073999 1182.788,674.326 C1183.348,674.578001 1183.838,674.913998 1184.258,675.334 C1184.678,675.754002 1185.007,676.250997 1185.245,676.825 C1185.483,677.399003 1185.602,678.021997 1185.602,678.694 C1185.602,679.646005 1185.427,680.450997 1185.077,681.109 C1184.727,681.767003 1184.258,682.284998 1183.67,682.663 C1183.082,683.041002 1182.403,683.299999 1181.633,683.44 C1180.863,683.580001 1180.058,683.622 1179.218,683.566 L1179.218,686.422 C1180.39401,686.422 1181.458,686.491999 1182.41,686.632 C1183.362,686.772001 1184.174,687.065998 1184.846,687.514 C1185.518,687.962002 1186.036,688.598996 1186.4,689.425 C1186.764,690.251004 1186.946,691.349993 1186.946,692.722 C1186.946,694.570009 1186.37901,696.053994 1185.245,697.174 C1184.11099,698.294006 1182.57801,698.854 1180.646,698.854 C1180.422,698.854 1180.184,698.847 1179.932,698.833 C1179.68,698.819 1179.442,698.784 1179.218,698.728 L1179.218,701.794 C1179.778,701.906001 1180.38,701.962 1181.024,701.962 C1182.45201,701.962 1183.76099,701.731002 1184.951,701.269 C1186.14101,700.806998 1187.163,700.149004 1188.017,699.295 C1188.871,698.440996 1189.536,697.419006 1190.012,696.229 C1190.488,695.038994 1190.726,693.716007 1190.726,692.26 C1190.726,691.335995 1190.607,690.447004 1190.369,689.593 C1190.131,688.738996 1189.774,687.976003 1189.298,687.304 C1188.822,686.631997 1188.227,686.065002 1187.513,685.603 C1186.799,685.140998 1185.966,684.854001 1185.014,684.742 L1185.014,684.658 C1186.61001,684.153997 1187.737,683.342006 1188.395,682.222 C1189.053,681.101994 1189.382,679.744008 1189.382,678.148 C1189.382,676.915994 1189.123,675.845005 1188.605,674.935 C1188.087,674.024995 1187.415,673.262003 1186.589,672.646 C1185.763,672.029997 1184.83201,671.568002 1183.796,671.26 C1182.75999,670.951998 1181.72401,670.798 1180.688,670.798 C1179.42799,670.798 1178.28701,671.000998 1177.265,671.407 C1176.24299,671.813002 1175.368,672.386996 1174.64,673.129 C1173.912,673.871004 1173.352,674.752995 1172.96,675.775 C1172.568,676.797005 1172.372,677.937994 1172.372,679.198 Z M1210.802,688.564 C1210.746,687.723996 1210.557,686.926004 1210.235,686.17 C1209.913,685.413996 1209.479,684.763003 1208.933,684.217 C1208.387,683.670997 1207.743,683.237002 1207.001,682.915 C1206.259,682.592998 1205.44,682.432 1204.544,682.432 C1203.62,682.432 1202.787,682.592998 1202.045,682.915 C1201.303,683.237002 1200.666,683.677997 1200.134,684.238 C1199.602,684.798003 1199.182,685.448996 1198.874,686.191 C1198.566,686.933004 1198.384,687.723996 1198.328,688.564 L1210.802,688.564 Z M1214.246,694.612 C1213.77,697.048012 1212.72001,698.881994 1211.096,700.114 C1209.47199,701.346006 1207.42801,701.962 1204.964,701.962 C1203.22799,701.962 1201.72301,701.682003 1200.449,701.122 C1199.17499,700.561997 1198.104,699.778005 1197.236,698.77 C1196.368,697.761995 1195.717,696.558007 1195.283,695.158 C1194.849,693.757993 1194.604,692.232008 1194.548,690.58 C1194.548,688.927992 1194.8,687.416007 1195.304,686.044 C1195.808,684.671993 1196.515,683.482005 1197.425,682.474 C1198.335,681.465995 1199.41299,680.682003 1200.659,680.122 C1201.90501,679.561997 1203.26999,679.282 1204.754,679.282 C1206.68601,679.282 1208.28899,679.680996 1209.563,680.479 C1210.83701,681.277004 1211.859,682.291994 1212.629,683.524 C1213.399,684.756006 1213.931,686.099993 1214.225,687.556 C1214.519,689.012007 1214.638,690.397993 1214.582,691.714 L1198.328,691.714 C1198.3,692.666005 1198.412,693.568996 1198.664,694.423 C1198.916,695.277004 1199.322,696.032997 1199.882,696.691 C1200.442,697.349003 1201.156,697.873998 1202.024,698.266 C1202.892,698.658002 1203.91399,698.854 1205.09,698.854 C1206.60201,698.854 1207.841,698.504003 1208.807,697.804 C1209.773,697.103996 1210.41,696.040007 1210.718,694.612 L1214.246,694.612 Z M1352.972,680.29 L1356.752,680.29 C1356.696,678.637992 1356.381,677.217006 1355.807,676.027 C1355.233,674.836994 1354.449,673.850004 1353.455,673.066 C1352.461,672.281996 1351.30601,671.708002 1349.99,671.344 C1348.67399,670.979998 1347.24601,670.798 1345.706,670.798 C1344.33399,670.798 1342.99701,670.972998 1341.695,671.323 C1340.39299,671.673002 1339.23101,672.204996 1338.209,672.919 C1337.18699,673.633004 1336.368,674.542994 1335.752,675.649 C1335.136,676.755006 1334.828,678.063992 1334.828,679.576 C1334.828,680.948007 1335.101,682.088995 1335.647,682.999 C1336.193,683.909005 1336.921,684.650997 1337.831,685.225 C1338.741,685.799003 1339.76999,686.260998 1340.918,686.611 C1342.06601,686.961002 1343.23499,687.268999 1344.425,687.535 C1345.61501,687.801001 1346.78399,688.059999 1347.932,688.312 C1349.08001,688.564001 1350.109,688.892998 1351.019,689.299 C1351.929,689.705002 1352.657,690.229997 1353.203,690.874 C1353.749,691.518003 1354.022,692.357995 1354.022,693.394 C1354.022,694.486005 1353.798,695.381996 1353.35,696.082 C1352.902,696.782003 1352.314,697.334998 1351.586,697.741 C1350.858,698.147002 1350.039,698.433999 1349.129,698.602 C1348.219,698.770001 1347.316,698.854 1346.42,698.854 C1345.29999,698.854 1344.20801,698.714001 1343.144,698.434 C1342.07999,698.153999 1341.149,697.720003 1340.351,697.132 C1339.553,696.543997 1338.909,695.795005 1338.419,694.885 C1337.929,693.974995 1337.684,692.890006 1337.684,691.63 L1333.904,691.63 C1333.904,693.450009 1334.233,695.024993 1334.891,696.355 C1335.549,697.685007 1336.44499,698.776996 1337.579,699.631 C1338.71301,700.485004 1340.02899,701.121998 1341.527,701.542 C1343.02501,701.962002 1344.61399,702.172 1346.294,702.172 C1347.66601,702.172 1349.04499,702.011002 1350.431,701.689 C1351.81701,701.366998 1353.06999,700.849004 1354.19,700.135 C1355.31001,699.420996 1356.227,698.497006 1356.941,697.363 C1357.655,696.228994 1358.012,694.864008 1358.012,693.268 C1358.012,691.783993 1357.739,690.552005 1357.193,689.572 C1356.647,688.591995 1355.919,687.780003 1355.009,687.136 C1354.099,686.491997 1353.07001,685.981002 1351.922,685.603 C1350.77399,685.224998 1349.60501,684.896001 1348.415,684.616 C1347.22499,684.335999 1346.05601,684.077001 1344.908,683.839 C1343.75999,683.600999 1342.731,683.300002 1341.821,682.936 C1340.911,682.571998 1340.183,682.103003 1339.637,681.529 C1339.091,680.954997 1338.818,680.206005 1338.818,679.282 C1338.818,678.301995 1339.007,677.483003 1339.385,676.825 C1339.763,676.166997 1340.267,675.642002 1340.897,675.25 C1341.527,674.857998 1342.248,674.578001 1343.06,674.41 C1343.872,674.241999 1344.698,674.158 1345.538,674.158 C1347.61001,674.158 1349.31099,674.640995 1350.641,675.607 C1351.97101,676.573005 1352.748,678.133989 1352.972,680.29 Z M1376.996,686.758 L1380.692,686.758 C1380.552,685.469994 1380.216,684.357005 1379.684,683.419 C1379.152,682.480995 1378.473,681.704003 1377.647,681.088 C1376.821,680.471997 1375.86901,680.017001 1374.791,679.723 C1373.71299,679.428999 1372.55801,679.282 1371.326,679.282 C1369.61799,679.282 1368.12001,679.582997 1366.832,680.185 C1365.54399,680.787003 1364.473,681.612995 1363.619,682.663 C1362.765,683.713005 1362.128,684.944993 1361.708,686.359 C1361.288,687.773007 1361.078,689.291992 1361.078,690.916 C1361.078,692.540008 1361.295,694.030993 1361.729,695.389 C1362.163,696.747007 1362.807,697.915995 1363.661,698.896 C1364.515,699.876005 1365.57899,700.631997 1366.853,701.164 C1368.12701,701.696003 1369.58999,701.962 1371.242,701.962 C1374.01401,701.962 1376.20499,701.234007 1377.815,699.778 C1379.42501,698.321993 1380.426,696.250013 1380.818,693.562 L1377.164,693.562 C1376.94,695.242008 1376.331,696.543995 1375.337,697.468 C1374.343,698.392005 1372.96401,698.854 1371.2,698.854 C1370.07999,698.854 1369.114,698.630002 1368.302,698.182 C1367.49,697.733998 1366.832,697.139004 1366.328,696.397 C1365.824,695.654996 1365.453,694.808005 1365.215,693.856 C1364.977,692.903995 1364.858,691.924005 1364.858,690.916 C1364.858,689.823995 1364.97,688.767005 1365.194,687.745 C1365.418,686.722995 1365.789,685.820004 1366.307,685.036 C1366.825,684.251996 1367.518,683.622002 1368.386,683.146 C1369.254,682.669998 1370.33199,682.432 1371.62,682.432 C1373.13201,682.432 1374.336,682.809996 1375.232,683.566 C1376.128,684.322004 1376.716,685.385993 1376.996,686.758 Z M1384.808,671.512 L1384.808,701.5 L1388.378,701.5 L1388.378,689.236 C1388.378,688.255995 1388.511,687.353004 1388.777,686.527 C1389.043,685.700996 1389.442,684.980003 1389.974,684.364 C1390.506,683.747997 1391.171,683.272002 1391.969,682.936 C1392.767,682.599998 1393.71199,682.432 1394.804,682.432 C1396.17601,682.432 1397.254,682.823996 1398.038,683.608 C1398.822,684.392004 1399.214,685.455993 1399.214,686.8 L1399.214,701.5 L1402.784,701.5 L1402.784,687.22 C1402.784,686.043994 1402.665,684.973005 1402.427,684.007 C1402.189,683.040995 1401.776,682.208003 1401.188,681.508 C1400.6,680.807996 1399.83,680.262002 1398.878,679.87 C1397.926,679.477998 1396.73601,679.282 1395.308,679.282 C1394.664,679.282 1393.999,679.351999 1393.313,679.492 C1392.627,679.632001 1391.969,679.848999 1391.339,680.143 C1390.709,680.437001 1390.142,680.814998 1389.638,681.277 C1389.134,681.739002 1388.742,682.305997 1388.462,682.978 L1388.378,682.978 L1388.378,671.512 L1384.808,671.512 Z M1411.94,675.88 L1411.94,671.512 L1408.37,671.512 L1408.37,675.88 L1411.94,675.88 Z M1408.37,679.786 L1408.37,701.5 L1411.94,701.5 L1411.94,679.786 L1408.37,679.786 Z M1417.484,679.786 L1417.484,701.5 L1421.054,701.5 L1421.054,689.236 C1421.054,688.255995 1421.187,687.353004 1421.453,686.527 C1421.719,685.700996 1422.118,684.980003 1422.65,684.364 C1423.182,683.747997 1423.847,683.272002 1424.645,682.936 C1425.443,682.599998 1426.38799,682.432 1427.48,682.432 C1428.85201,682.432 1429.93,682.823996 1430.714,683.608 C1431.498,684.392004 1431.89,685.455993 1431.89,686.8 L1431.89,701.5 L1435.46,701.5 L1435.46,687.22 C1435.46,686.043994 1435.341,684.973005 1435.103,684.007 C1434.865,683.040995 1434.452,682.208003 1433.864,681.508 C1433.276,680.807996 1432.506,680.262002 1431.554,679.87 C1430.602,679.477998 1429.41201,679.282 1427.984,679.282 C1424.76398,679.282 1422.41201,680.597987 1420.928,683.23 L1420.844,683.23 L1420.844,679.786 L1417.484,679.786 Z M1441.046,671.512 L1441.046,701.5 L1444.616,701.5 L1444.616,693.268 L1447.976,690.16 L1455.41,701.5 L1459.946,701.5 L1450.706,687.682 L1459.316,679.786 L1454.528,679.786 L1444.616,689.278 L1444.616,671.512 L1441.046,671.512 Z M1477.712,688.564 C1477.656,687.723996 1477.467,686.926004 1477.145,686.17 C1476.823,685.413996 1476.389,684.763003 1475.843,684.217 C1475.297,683.670997 1474.653,683.237002 1473.911,682.915 C1473.169,682.592998 1472.35,682.432 1471.454,682.432 C1470.53,682.432 1469.697,682.592998 1468.955,682.915 C1468.213,683.237002 1467.576,683.677997 1467.044,684.238 C1466.512,684.798003 1466.092,685.448996 1465.784,686.191 C1465.476,686.933004 1465.294,687.723996 1465.238,688.564 L1477.712,688.564 Z M1481.156,694.612 C1480.68,697.048012 1479.63001,698.881994 1478.006,700.114 C1476.38199,701.346006 1474.33801,701.962 1471.874,701.962 C1470.13799,701.962 1468.63301,701.682003 1467.359,701.122 C1466.08499,700.561997 1465.014,699.778005 1464.146,698.77 C1463.278,697.761995 1462.627,696.558007 1462.193,695.158 C1461.759,693.757993 1461.514,692.232008 1461.458,690.58 C1461.458,688.927992 1461.71,687.416007 1462.214,686.044 C1462.718,684.671993 1463.425,683.482005 1464.335,682.474 C1465.245,681.465995 1466.32299,680.682003 1467.569,680.122 C1468.81501,679.561997 1470.17999,679.282 1471.664,679.282 C1473.59601,679.282 1475.19899,679.680996 1476.473,680.479 C1477.74701,681.277004 1478.769,682.291994 1479.539,683.524 C1480.309,684.756006 1480.841,686.099993 1481.135,687.556 C1481.429,689.012007 1481.548,690.397993 1481.492,691.714 L1465.238,691.714 C1465.21,692.666005 1465.322,693.568996 1465.574,694.423 C1465.826,695.277004 1466.232,696.032997 1466.792,696.691 C1467.352,697.349003 1468.066,697.873998 1468.934,698.266 C1469.802,698.658002 1470.82399,698.854 1472,698.854 C1473.51201,698.854 1474.751,698.504003 1475.717,697.804 C1476.683,697.103996 1477.32,696.040007 1477.628,694.612 L1481.156,694.612 Z M1485.398,671.512 L1485.398,701.5 L1488.968,701.5 L1488.968,671.512 L1485.398,671.512 Z M1496.696,694.654 L1493.126,694.654 C1493.182,695.998007 1493.462,697.138995 1493.966,698.077 C1494.47,699.015005 1495.142,699.770997 1495.982,700.345 C1496.822,700.919003 1497.78799,701.331999 1498.88,701.584 C1499.97201,701.836001 1501.11999,701.962 1502.324,701.962 C1503.41601,701.962 1504.51499,701.857001 1505.621,701.647 C1506.72701,701.436999 1507.721,701.066003 1508.603,700.534 C1509.485,700.001997 1510.199,699.302004 1510.745,698.434 C1511.291,697.565996 1511.564,696.474007 1511.564,695.158 C1511.564,694.121995 1511.361,693.254003 1510.955,692.554 C1510.549,691.853996 1510.017,691.273002 1509.359,690.811 C1508.701,690.348998 1507.945,689.978001 1507.091,689.698 C1506.237,689.417999 1505.362,689.180001 1504.466,688.984 C1503.626,688.787999 1502.786,688.599001 1501.946,688.417 C1501.106,688.234999 1500.35,688.011001 1499.678,687.745 C1499.006,687.478999 1498.453,687.143002 1498.019,686.737 C1497.585,686.330998 1497.368,685.820003 1497.368,685.204 C1497.368,684.643997 1497.508,684.189002 1497.788,683.839 C1498.068,683.488998 1498.432,683.209001 1498.88,682.999 C1499.328,682.788999 1499.825,682.642 1500.371,682.558 C1500.917,682.474 1501.456,682.432 1501.988,682.432 C1502.576,682.432 1503.157,682.494999 1503.731,682.621 C1504.305,682.747001 1504.83,682.949999 1505.306,683.23 C1505.782,683.510001 1506.174,683.880998 1506.482,684.343 C1506.79,684.805002 1506.972,685.385996 1507.028,686.086 L1510.598,686.086 C1510.514,684.769993 1510.234,683.671004 1509.758,682.789 C1509.282,681.906996 1508.645,681.207003 1507.847,680.689 C1507.049,680.170997 1506.13201,679.807001 1505.096,679.597 C1504.05999,679.386999 1502.92601,679.282 1501.694,679.282 C1500.742,679.282 1499.783,679.400999 1498.817,679.639 C1497.851,679.877001 1496.983,680.240998 1496.213,680.731 C1495.443,681.221002 1494.813,681.857996 1494.323,682.642 C1493.833,683.426004 1493.588,684.363995 1493.588,685.456 C1493.588,686.856007 1493.938,687.947996 1494.638,688.732 C1495.338,689.516004 1496.21299,690.124998 1497.263,690.559 C1498.31301,690.993002 1499.45399,691.328999 1500.686,691.567 C1501.91801,691.805001 1503.05899,692.070999 1504.109,692.365 C1505.15901,692.659001 1506.034,693.043998 1506.734,693.52 C1507.434,693.996002 1507.784,694.695995 1507.784,695.62 C1507.784,696.292003 1507.616,696.844998 1507.28,697.279 C1506.944,697.713002 1506.517,698.041999 1505.999,698.266 C1505.481,698.490001 1504.914,698.644 1504.298,698.728 C1503.682,698.812 1503.094,698.854 1502.534,698.854 C1501.806,698.854 1501.099,698.784001 1500.413,698.644 C1499.727,698.503999 1499.111,698.273002 1498.565,697.951 C1498.019,697.628998 1497.578,697.195003 1497.242,696.649 C1496.906,696.102997 1496.724,695.438004 1496.696,694.654 Z M1520.468,679.786 L1520.468,673.276 L1516.898,673.276 L1516.898,679.786 L1513.202,679.786 L1513.202,682.936 L1516.898,682.936 L1516.898,696.754 C1516.898,697.762005 1516.996,698.573997 1517.192,699.19 C1517.388,699.806003 1517.689,700.281998 1518.095,700.618 C1518.501,700.954002 1519.033,701.184999 1519.691,701.311 C1520.349,701.437001 1521.14,701.5 1522.064,701.5 L1524.794,701.5 L1524.794,698.35 L1523.156,698.35 C1522.596,698.35 1522.141,698.329 1521.791,698.287 C1521.441,698.245 1521.168,698.154001 1520.972,698.014 C1520.776,697.873999 1520.643,697.678001 1520.573,697.426 C1520.503,697.173999 1520.468,696.838002 1520.468,696.418 L1520.468,682.936 L1524.794,682.936 L1524.794,679.786 L1520.468,679.786 Z M1528.616,679.786 L1528.616,701.5 L1532.186,701.5 L1532.186,691.84 C1532.186,690.439993 1532.326,689.201005 1532.606,688.123 C1532.886,687.044995 1533.334,686.128004 1533.95,685.372 C1534.566,684.615996 1535.37799,684.042002 1536.386,683.65 C1537.39401,683.257998 1538.61199,683.062 1540.04,683.062 L1540.04,679.282 C1538.10799,679.226 1536.51201,679.617996 1535.252,680.458 C1533.99199,681.298004 1532.928,682.599991 1532.06,684.364 L1531.976,684.364 L1531.976,679.786 L1528.616,679.786 Z M1561.964,701.416 C1561.348,701.780002 1560.49401,701.962 1559.402,701.962 C1558.478,701.962 1557.743,701.703003 1557.197,701.185 C1556.651,700.666997 1556.378,699.820006 1556.378,698.644 C1555.398,699.820006 1554.25701,700.666997 1552.955,701.185 C1551.65299,701.703003 1550.24601,701.962 1548.734,701.962 C1547.754,701.962 1546.823,701.850001 1545.941,701.626 C1545.059,701.401999 1544.296,701.052002 1543.652,700.576 C1543.008,700.099998 1542.497,699.477004 1542.119,698.707 C1541.741,697.936996 1541.552,697.006005 1541.552,695.914 C1541.552,694.681994 1541.762,693.674004 1542.182,692.89 C1542.602,692.105996 1543.155,691.469002 1543.841,690.979 C1544.527,690.488998 1545.311,690.118001 1546.193,689.866 C1547.075,689.613999 1547.978,689.404001 1548.902,689.236 C1549.882,689.039999 1550.813,688.893 1551.695,688.795 C1552.577,688.697 1553.354,688.557001 1554.026,688.375 C1554.698,688.192999 1555.23,687.927002 1555.622,687.577 C1556.014,687.226998 1556.21,686.716003 1556.21,686.044 C1556.21,685.259996 1556.063,684.630002 1555.769,684.154 C1555.475,683.677998 1555.097,683.314001 1554.635,683.062 C1554.173,682.809999 1553.655,682.642 1553.081,682.558 C1552.507,682.474 1551.94,682.432 1551.38,682.432 C1549.86799,682.432 1548.60801,682.718997 1547.6,683.293 C1546.59199,683.867003 1546.046,684.951992 1545.962,686.548 L1542.392,686.548 C1542.448,685.203993 1542.728,684.070005 1543.232,683.146 C1543.736,682.221995 1544.408,681.473003 1545.248,680.899 C1546.088,680.324997 1547.04699,679.912001 1548.125,679.66 C1549.20301,679.407999 1550.35799,679.282 1551.59,679.282 C1552.57,679.282 1553.543,679.351999 1554.509,679.492 C1555.475,679.632001 1556.35,679.918998 1557.134,680.353 C1557.918,680.787002 1558.548,681.395996 1559.024,682.18 C1559.5,682.964004 1559.738,683.985994 1559.738,685.246 L1559.738,696.418 C1559.738,697.258004 1559.787,697.873998 1559.885,698.266 C1559.983,698.658002 1560.312,698.854 1560.872,698.854 C1561.18,698.854 1561.544,698.784001 1561.964,698.644 L1561.964,701.416 Z M1556.168,690.286 C1555.72,690.622002 1555.132,690.866999 1554.404,691.021 C1553.676,691.175001 1552.913,691.301 1552.115,691.399 C1551.317,691.497 1550.512,691.608999 1549.7,691.735 C1548.888,691.861001 1548.16,692.063999 1547.516,692.344 C1546.872,692.624001 1546.347,693.022997 1545.941,693.541 C1545.535,694.059003 1545.332,694.765996 1545.332,695.662 C1545.332,696.250003 1545.451,696.746998 1545.689,697.153 C1545.927,697.559002 1546.235,697.887999 1546.613,698.14 C1546.991,698.392001 1547.432,698.573999 1547.936,698.686 C1548.44,698.798001 1548.972,698.854 1549.532,698.854 C1550.70801,698.854 1551.716,698.693002 1552.556,698.371 C1553.396,698.048998 1554.082,697.643002 1554.614,697.153 C1555.146,696.662998 1555.538,696.131003 1555.79,695.557 C1556.042,694.982997 1556.168,694.444003 1556.168,693.94 L1556.168,690.286 Z M1565.282,679.198 L1565.282,701.5 L1568.852,701.5 L1568.852,679.828 C1568.852,678.651994 1568.978,677.686004 1569.23,676.93 C1569.482,676.173996 1569.825,675.579002 1570.259,675.145 C1570.693,674.710998 1571.218,674.403001 1571.834,674.221 C1572.45,674.038999 1573.122,673.948 1573.85,673.948 C1574.522,673.948 1575.138,674.073999 1575.698,674.326 C1576.258,674.578001 1576.748,674.913998 1577.168,675.334 C1577.588,675.754002 1577.917,676.250997 1578.155,676.825 C1578.393,677.399003 1578.512,678.021997 1578.512,678.694 C1578.512,679.646005 1578.337,680.450997 1577.987,681.109 C1577.637,681.767003 1577.168,682.284998 1576.58,682.663 C1575.992,683.041002 1575.313,683.299999 1574.543,683.44 C1573.773,683.580001 1572.968,683.622 1572.128,683.566 L1572.128,686.422 C1573.30401,686.422 1574.368,686.491999 1575.32,686.632 C1576.272,686.772001 1577.084,687.065998 1577.756,687.514 C1578.428,687.962002 1578.946,688.598996 1579.31,689.425 C1579.674,690.251004 1579.856,691.349993 1579.856,692.722 C1579.856,694.570009 1579.28901,696.053994 1578.155,697.174 C1577.02099,698.294006 1575.48801,698.854 1573.556,698.854 C1573.332,698.854 1573.094,698.847 1572.842,698.833 C1572.59,698.819 1572.352,698.784 1572.128,698.728 L1572.128,701.794 C1572.688,701.906001 1573.29,701.962 1573.934,701.962 C1575.36201,701.962 1576.67099,701.731002 1577.861,701.269 C1579.05101,700.806998 1580.073,700.149004 1580.927,699.295 C1581.781,698.440996 1582.446,697.419006 1582.922,696.229 C1583.398,695.038994 1583.636,693.716007 1583.636,692.26 C1583.636,691.335995 1583.517,690.447004 1583.279,689.593 C1583.041,688.738996 1582.684,687.976003 1582.208,687.304 C1581.732,686.631997 1581.137,686.065002 1580.423,685.603 C1579.709,685.140998 1578.876,684.854001 1577.924,684.742 L1577.924,684.658 C1579.52001,684.153997 1580.647,683.342006 1581.305,682.222 C1581.963,681.101994 1582.292,679.744008 1582.292,678.148 C1582.292,676.915994 1582.033,675.845005 1581.515,674.935 C1580.997,674.024995 1580.325,673.262003 1579.499,672.646 C1578.673,672.029997 1577.74201,671.568002 1576.706,671.26 C1575.66999,670.951998 1574.63401,670.798 1573.598,670.798 C1572.33799,670.798 1571.19701,671.000998 1570.175,671.407 C1569.15299,671.813002 1568.278,672.386996 1567.55,673.129 C1566.822,673.871004 1566.262,674.752995 1565.87,675.775 C1565.478,676.797005 1565.282,677.937994 1565.282,679.198 Z M1603.712,688.564 C1603.656,687.723996 1603.467,686.926004 1603.145,686.17 C1602.823,685.413996 1602.389,684.763003 1601.843,684.217 C1601.297,683.670997 1600.653,683.237002 1599.911,682.915 C1599.169,682.592998 1598.35,682.432 1597.454,682.432 C1596.53,682.432 1595.697,682.592998 1594.955,682.915 C1594.213,683.237002 1593.576,683.677997 1593.044,684.238 C1592.512,684.798003 1592.092,685.448996 1591.784,686.191 C1591.476,686.933004 1591.294,687.723996 1591.238,688.564 L1603.712,688.564 Z M1607.156,694.612 C1606.68,697.048012 1605.63001,698.881994 1604.006,700.114 C1602.38199,701.346006 1600.33801,701.962 1597.874,701.962 C1596.13799,701.962 1594.63301,701.682003 1593.359,701.122 C1592.08499,700.561997 1591.014,699.778005 1590.146,698.77 C1589.278,697.761995 1588.627,696.558007 1588.193,695.158 C1587.759,693.757993 1587.514,692.232008 1587.458,690.58 C1587.458,688.927992 1587.71,687.416007 1588.214,686.044 C1588.718,684.671993 1589.425,683.482005 1590.335,682.474 C1591.245,681.465995 1592.32299,680.682003 1593.569,680.122 C1594.81501,679.561997 1596.17999,679.282 1597.664,679.282 C1599.59601,679.282 1601.19899,679.680996 1602.473,680.479 C1603.74701,681.277004 1604.769,682.291994 1605.539,683.524 C1606.309,684.756006 1606.841,686.099993 1607.135,687.556 C1607.429,689.012007 1607.548,690.397993 1607.492,691.714 L1591.238,691.714 C1591.21,692.666005 1591.322,693.568996 1591.574,694.423 C1591.826,695.277004 1592.232,696.032997 1592.792,696.691 C1593.352,697.349003 1594.066,697.873998 1594.934,698.266 C1595.802,698.658002 1596.82399,698.854 1598,698.854 C1599.51201,698.854 1600.751,698.504003 1601.717,697.804 C1602.683,697.103996 1603.32,696.040007 1603.628,694.612 L1607.156,694.612 Z" id="Schinkelstrae-Schin" fill="#D8D8D8" transform="translate(1077.794720, 686.485000) rotate(-90.000000) translate(-1077.794720, -686.485000) "></path>
            <path d="M523,619 C527.247369,619 531.00119,610.994737 536.273438,610.523437 C546.143739,609.641106 552.870832,610.671535 558.390625,605.785156 C564.104867,600.726643 562.957964,596.771194 563.347656,588.519531 C563.635437,582.425819 571,577.078982 571,571 C571,565.309875 564.693925,560.782056 563.347656,553.144531 C562.160629,546.410397 561.167528,541.182611 558.390625,537.441406 C553.450358,530.785591 550.962854,533.380846 542.792969,532.699219 C536.498468,532.174058 529.876795,523 523,523 C515.694373,523 508.895012,530.072194 499.046875,532.699219 C493.466773,534.18773 483.39739,535.023256 480.414062,537.441406 C474.28937,542.405804 480.067691,545.492067 480.414063,553.144531 C480.681693,559.057349 475,564.433678 475,571 C475,577.433483 480.302978,581.725688 480.414062,588.519531 C480.536897,596.032012 484.197484,605.940491 488.9375,610.523437 C493.045429,614.495243 491.543258,609.401454 499.046875,610.523437 C507.319067,611.760343 516.203159,619 523,619 Z" id="Oval" fill="#7ED321"></path>
            <polygon id="Path-2" fill="#3494E6" points="811.269531 977.261719 438.265533 977.261719 438.265533 832.503669 706.192961 832.503669 764.121027 890.431736 764.121027 918.96329 815.957706 918.96329"></polygon>
            <polygon id="Path-3" fill="#3494E6" points="439.300781 958.8125 360.286641 958.8125 404.184473 914.914668 300.056 810.786195 318.148219 792.693977 269.999701 744.545459 249.150623 765.394537 215.192909 731.436823 441.193864 505.435868 479.86636 505.435868 479.86636 245.377882 0.415779038 724.828464 324.909334 1049.32202 441.074323 1049.32202"></polygon>
            <polygon id="Path-4" fill="#3494E6" points="480.753906 247.8125 518.228087 285.286681 723.672359 285.286681 723.672359 309.448738 819.313121 309.448738 819.313121 505.472535 433.413272 505.472535"></polygon>
            <path d="M315.5,632.5 L354.003247,593.996753" id="Line-3" stroke="#EE0979" stroke-width="10" stroke-linecap="square"></path>
            <path d="M342.5,611.5 C392.960446,668.510417 448.016191,697.177083 507.667235,697.5 C567.318278,697.822917 729.4292,697.822917 994,697.5" id="Line-4" stroke="#EE0979" stroke-width="10" stroke-linecap="square" stroke-dasharray="27"></path>
        </g>
    </g>
</svg>