<?xml version="1.0" encoding="UTF-8" standalone="no"?>
<svg width="257px" height="25px" viewBox="0 0 257 25" version="1.1" xmlns="http://www.w3.org/2000/svg" xmlns:xlink="http://www.w3.org/1999/xlink">
    <!-- Generator: Sketch 46.2 (44496) - http://www.bohemiancoding.com/sketch -->
    <title>logo</title>
    <desc>Created with Sketch.</desc>
    <defs></defs>
    <g id="Page-1" stroke="none" stroke-width="1" fill="none" fill-rule="evenodd">
        <g id="logo" transform="translate(-1.000000, 0.000000)" fill="#FFFFFF">
            <path d="M45.7075472,0.188679245 L45.7075472,0.188679245 C46.5566038,0.235849057 47.3584906,0.188679245 48.1603774,0.235849057 L48.1603774,23.0188679 L45.7075472,23.0188679 C45.7075472,15.3773585 45.6603774,7.78301887 45.7075472,0.188679245" id="Shape"></path>
            <path d="M53.5377358,0.283018868 L55.990566,0.283018868 L55.990566,22.9716981 L53.5377358,22.9716981 L53.5377358,2.16981132 C53.490566,1.55660377 53.490566,0.943396226 53.5377358,0.283018868" id="Shape"></path>
            <path d="M124.858491,0.283018868 L127.311321,0.283018868 L127.311321,14.7169811 C129.669811,12.5 132.028302,10.2830189 134.339623,8.06603774 L137.54717,8.06603774 C135.188679,10.3773585 132.688679,12.6415094 130.283019,14.9528302 C132.688679,17.6415094 135.141509,20.3301887 137.54717,23.0188679 L134.433962,23.0188679 C132.075472,20.3773585 129.669811,17.7358491 127.264151,15.0943396 L127.264151,23.0188679 L124.811321,23.0188679 C124.858491,15.4245283 124.858491,7.87735849 124.858491,0.283018868" id="Shape"></path>
            <path d="M29.6226415,1.98113208 L32.1226415,1.98113208 C32.1226415,2.87735849 32.1698113,3.72641509 32.0754717,4.62264151 L29.6226415,4.62264151 C29.5754717,3.72641509 29.6226415,2.83018868 29.6226415,1.98113208" id="Shape"></path>
            <path d="M35.6132075,1.98113208 L38.1603774,1.98113208 C38.1132075,2.87735849 38.2075472,3.72641509 38.1132075,4.62264151 C37.3113208,4.62264151 36.4622642,4.5754717 35.6603774,4.62264151 C35.5660377,3.72641509 35.6132075,2.87735849 35.6132075,1.98113208" id="Shape"></path>
            <path d="M217.783019,3.96226415 L220.235849,3.96226415 C220.235849,5.33018868 220.188679,6.69811321 220.283019,8.06603774 C221.745283,8.06603774 223.254717,8.01886792 224.716981,8.06603774 L224.716981,10.1415094 C223.207547,10.1886792 221.745283,10.1415094 220.235849,10.1415094 C220.188679,12.2169811 220.235849,14.2924528 220.235849,16.3679245 C220.235849,17.3584906 220.188679,18.3018868 220.283019,19.2924528 C220.330189,20.0471698 220.849057,20.754717 221.603774,20.990566 C222.688679,21.4150943 223.867925,21.1792453 224.95283,20.9433962 L224.95283,23.0188679 C223.820755,23.3490566 222.688679,23.3962264 221.509434,23.3018868 C220.377358,23.1603774 219.150943,22.6886792 218.490566,21.6981132 C217.924528,20.8962264 217.783019,19.8584906 217.783019,18.9150943 L217.783019,10.0943396 L214.90566,10.0943396 L214.90566,8.01886792 L217.735849,8.01886792 C217.783019,6.69811321 217.735849,5.33018868 217.783019,3.96226415" id="Shape"></path>
            <path d="M4.29245283,8.67924528 C5.66037736,7.68867925 7.45283019,7.45283019 9.05660377,7.83018868 C10.4716981,8.16037736 11.5566038,9.33962264 12.1226415,10.6603774 C13.0660377,9.33962264 14.3867925,8.16037736 15.990566,7.83018868 C17.2169811,7.59433962 18.5377358,7.64150943 19.7169811,8.11320755 C21.0377358,8.63207547 21.9339623,9.90566038 22.2641509,11.2735849 C22.5,12.3584906 22.4056604,13.490566 22.4528302,14.6226415 L22.4528302,23.0188679 C21.6037736,23.0660377 20.8018868,23.0188679 19.9528302,23.0188679 L19.9528302,13.3962264 C19.9528302,12.3584906 19.7641509,11.2264151 18.9622642,10.5188679 C18.2075472,9.81132075 17.0283019,9.71698113 16.0377358,9.90566038 C14.5754717,10.1886792 13.4433962,11.2735849 12.6415094,12.4056604 L12.6415094,23.0188679 L10.1886792,23.0188679 L10.1886792,13.3018868 C10.1886792,12.3113208 9.95283019,11.2264151 9.19811321,10.5188679 C8.44339623,9.81132075 7.31132075,9.76415094 6.32075472,9.90566038 C5.04716981,10.1415094 3.96226415,11.0377358 3.16037736,12.0283019 C3.01886792,12.2169811 2.83018868,12.4056604 2.83018868,12.6415094 L2.83018868,23.0188679 C1.98113208,23.0188679 1.13207547,23.0660377 0.283018868,22.9716981 L0.283018868,8.06603774 C0.943396226,8.01886792 1.60377358,8.06603774 2.26415094,8.06603774 C2.40566038,8.72641509 2.54716981,9.43396226 2.73584906,10.0943396 C3.25471698,9.62264151 3.72641509,9.05660377 4.29245283,8.67924528" id="Shape"></path>
            <path d="M62.2169811,9.81132075 C63.4433962,8.39622642 65.2830189,7.64150943 67.1226415,7.68867925 C68.6320755,7.64150943 70.2358491,8.16037736 71.2735849,9.33962264 C72.4056604,10.5660377 72.8773585,12.2169811 73.0188679,13.8207547 C73.0660377,14.5754717 73.1132075,15.2830189 73.0188679,16.0377358 L62.7358491,16.0377358 C62.6886792,17.3584906 63.0660377,18.7735849 64.009434,19.7641509 C64.8584906,20.7075472 66.1320755,21.0849057 67.3584906,21.2264151 C68.7264151,21.3207547 70.0943396,21.2264151 71.3679245,20.8490566 C71.745283,20.754717 72.0754717,20.5660377 72.4528302,20.5188679 L72.4528302,22.5471698 C70.7075472,23.3490566 68.7735849,23.490566 66.8867925,23.3490566 C65.0943396,23.2075472 63.2075472,22.5943396 61.9811321,21.1792453 C60.5188679,19.5283019 60.1415094,17.1698113 60.2830189,15.0471698 C60.3301887,13.1603774 60.9433962,11.2264151 62.2169811,9.81132075 Z M65.0471698,10.2830189 C63.7264151,11.0377358 62.9716981,12.5 62.8773585,13.9150943 L70.5188679,13.9150943 C70.4716981,12.7358491 70.1886792,11.509434 69.2924528,10.6603774 C68.1603774,9.5754717 66.3207547,9.52830189 65.0471698,10.2830189 Z" id="Combined-Shape"></path>
            <path d="M84.1509434,7.78301887 C84.8113208,7.64150943 85.4716981,7.64150943 86.1320755,7.68867925 L86.1320755,10.0471698 C85.0943396,10.0943396 84.009434,10.1886792 83.0188679,10.5660377 C81.9811321,10.990566 80.9433962,11.6037736 80.3773585,12.5943396 C80.3301887,16.0377358 80.3773585,19.5283019 80.3773585,22.9716981 L77.9245283,22.9716981 L77.9245283,8.06603774 C78.5849057,8.01886792 79.1981132,8.06603774 79.8584906,8.06603774 C80,8.86792453 80.1886792,9.62264151 80.3301887,10.4245283 C81.1320755,9.10377358 82.5471698,8.11320755 84.1509434,7.78301887" id="Shape"></path>
            <path d="M145.141509,7.78301887 C147.028302,7.5 149.056604,7.78301887 150.660377,8.91509434 C152.311321,10.0471698 153.207547,11.9811321 153.490566,13.9150943 C153.820755,16.1792453 153.537736,18.6320755 152.216981,20.5660377 C151.273585,22.0283019 149.669811,23.0188679 147.971698,23.3018868 C145.849057,23.6792453 143.490566,23.3018868 141.839623,21.7924528 C140.09434,20.2830189 139.386792,17.9716981 139.386792,15.754717 C139.339623,13.7735849 139.811321,11.745283 141.037736,10.1415094 C142.028302,8.86792453 143.537736,8.01886792 145.141509,7.78301887 Z M145.471698,9.85849057 C144.481132,10.0943396 143.537736,10.754717 143.018868,11.6981132 C142.264151,12.8301887 141.981132,14.1981132 141.981132,15.5660377 C141.933962,16.9339623 142.216981,18.3490566 143.018868,19.5283019 C143.632075,20.4245283 144.622642,21.0849057 145.707547,21.2735849 C146.698113,21.4150943 147.735849,21.2735849 148.584906,20.8018868 C149.386792,20.3773585 150,19.6698113 150.377358,18.8207547 C150.849057,17.7830189 151.037736,16.6509434 151.037736,15.5188679 C151.037736,14.4811321 150.896226,13.4433962 150.471698,12.5 C150.09434,11.6037736 149.528302,10.8018868 148.679245,10.3301887 C147.735849,9.76415094 146.556604,9.62264151 145.471698,9.85849057 Z" id="Combined-Shape"></path>
            <path d="M163.113208,7.9245283 C163.962264,7.64150943 164.811321,7.64150943 165.707547,7.68867925 C166.698113,7.78301887 167.735849,8.11320755 168.443396,8.82075472 C169.433962,9.76415094 169.858491,11.1320755 169.90566,12.4528302 L169.90566,22.9716981 C169.056604,23.0188679 168.254717,23.0188679 167.40566,22.9716981 C167.45283,19.6698113 167.40566,16.3207547 167.40566,13.0188679 C167.358491,12.0754717 167.169811,11.0377358 166.415094,10.3773585 C165.707547,9.76415094 164.764151,9.71698113 163.867925,9.81132075 C162.311321,10.0471698 160.943396,11.0849057 160.04717,12.3584906 C160,15.8962264 160.04717,19.4339623 160.04717,22.9716981 C159.245283,23.0188679 158.396226,22.9716981 157.59434,22.9716981 L157.59434,8.01886792 L159.528302,8.01886792 C159.716981,8.67924528 159.764151,9.38679245 160.04717,10.0471698 C160.754717,9.10377358 161.839623,8.30188679 163.113208,7.9245283" id="Shape"></path>
            <path d="M177.971698,7.78301887 C179.858491,7.45283019 181.839623,7.73584906 183.632075,8.49056604 L183.632075,10.5660377 C182.40566,10.1415094 181.132075,9.76415094 179.858491,9.76415094 C179.056604,9.71698113 178.207547,9.85849057 177.5,10.3301887 C176.462264,10.990566 176.320755,12.7830189 177.40566,13.490566 C178.160377,14.009434 179.103774,14.1509434 180,14.3867925 C180.943396,14.6226415 181.886792,14.8113208 182.735849,15.3773585 C183.537736,15.8962264 184.056604,16.745283 184.198113,17.6415094 C184.386792,18.7735849 184.292453,20 183.726415,20.990566 C183.160377,21.9339623 182.216981,22.5943396 181.179245,22.9245283 C179.858491,23.3962264 178.396226,23.4433962 176.981132,23.3490566 C175.990566,23.2075472 174.95283,23.0660377 174.056604,22.5471698 L174.056604,20.5188679 C175.235849,20.9433962 176.462264,21.3679245 177.735849,21.3207547 C178.820755,21.3207547 179.95283,21.2264151 180.849057,20.5660377 C181.839623,19.8584906 181.981132,18.254717 181.084906,17.4528302 C180.471698,16.8867925 179.622642,16.6981132 178.867925,16.509434 C177.735849,16.2264151 176.556604,16.0377358 175.566038,15.3773585 C174.811321,14.8584906 174.245283,14.009434 174.150943,13.1132075 C174.009434,11.9811321 174.150943,10.7075472 174.858491,9.76415094 C175.566038,8.63207547 176.745283,8.01886792 177.971698,7.78301887" id="Shape"></path>
            <path d="M193.584906,7.73584906 C195.424528,7.5 197.40566,7.73584906 198.962264,8.82075472 C200.707547,10 201.650943,12.0283019 201.886792,14.0566038 C202.169811,16.4150943 201.839623,18.9622642 200.330189,20.8962264 C199.056604,22.5943396 196.933962,23.490566 194.811321,23.3962264 C192.830189,23.4433962 190.754717,22.6415094 189.481132,21.0849057 C188.113208,19.4339623 187.641509,17.2641509 187.735849,15.1886792 C187.783019,13.3490566 188.301887,11.4150943 189.528302,10 C190.566038,8.77358491 192.028302,7.97169811 193.584906,7.73584906 Z M193.915094,9.85849057 C192.688679,10.1415094 191.650943,10.990566 191.132075,12.0283019 C190.518868,13.1132075 190.377358,14.4339623 190.377358,15.6603774 C190.377358,16.7924528 190.613208,17.9716981 191.132075,18.9622642 C191.650943,19.8584906 192.40566,20.6132075 193.396226,20.990566 C194.103774,21.2735849 194.90566,21.3207547 195.660377,21.2264151 C196.745283,21.0377358 197.783019,20.3773585 198.396226,19.4339623 C199.198113,18.254717 199.481132,16.8396226 199.433962,15.4716981 C199.433962,14.3396226 199.245283,13.2075472 198.726415,12.1698113 C198.301887,11.3679245 197.641509,10.6132075 196.792453,10.1886792 C195.943396,9.71698113 194.90566,9.66981132 193.915094,9.85849057 Z" id="Combined-Shape"></path>
            <path d="M209.858491,8.82075472 C211.084906,7.9245283 212.641509,7.54716981 214.150943,7.68867925 L214.150943,10.0471698 C213.301887,10.0943396 212.40566,10.1415094 211.603774,10.3773585 C210.424528,10.7075472 209.292453,11.3207547 208.584906,12.3584906 C208.490566,12.4528302 208.396226,12.5943396 208.396226,12.7358491 L208.396226,23.0188679 L205.943396,23.0188679 L205.943396,13.3018868 C205.943396,11.5566038 205.896226,9.81132075 205.990566,8.06603774 C206.603774,8.11320755 207.264151,8.06603774 207.877358,8.06603774 C208.066038,8.82075472 208.207547,9.62264151 208.349057,10.3773585 C208.820755,9.81132075 209.245283,9.24528302 209.858491,8.82075472" id="Shape"></path>
            <path d="M232.688679,7.78301887 C234.198113,7.5 235.896226,7.64150943 237.216981,8.49056604 C238.490566,9.29245283 239.292453,10.7075472 239.669811,12.1226415 C240,13.3962264 240.04717,14.7169811 240,16.0377358 L229.669811,16.0377358 C229.669811,17.1226415 229.90566,18.3018868 230.518868,19.1981132 C231.226415,20.2830189 232.45283,20.8962264 233.679245,21.0849057 C235.613208,21.4150943 237.59434,21.1320755 239.386792,20.4716981 L239.386792,22.5471698 C238.160377,23.1132075 236.792453,23.3490566 235.424528,23.3962264 C233.537736,23.4433962 231.509434,23.2075472 229.95283,22.1226415 C228.396226,21.0849057 227.54717,19.245283 227.311321,17.4056604 C227.028302,15.1886792 227.216981,12.7830189 228.443396,10.8018868 C229.339623,9.24528302 230.896226,8.11320755 232.688679,7.78301887 Z M231.509434,10.6132075 C230.471698,11.4150943 229.90566,12.6886792 229.811321,13.9150943 L237.45283,13.9150943 C237.45283,12.6415094 237.075472,11.2735849 236.037736,10.4716981 C234.716981,9.43396226 232.783019,9.62264151 231.509434,10.6132075 Z" id="Combined-Shape"></path>
            <path d="M246.933962,10.1415094 C248.066038,8.63207547 249.90566,7.59433962 251.792453,7.68867925 C253.066038,7.64150943 254.433962,7.97169811 255.377358,8.91509434 C256.320755,9.81132075 256.698113,11.1320755 256.745283,12.4056604 L256.745283,23.0188679 L254.292453,23.0188679 L254.292453,13.8679245 C254.245283,12.8773585 254.292453,11.8396226 253.726415,10.9433962 C253.254717,10.1886792 252.358491,9.81132075 251.462264,9.81132075 C250.141509,9.76415094 248.915094,10.3301887 247.924528,11.1792453 C247.5,11.5566038 247.075472,11.9811321 246.839623,12.4528302 L246.839623,22.9716981 L244.386792,22.9716981 L244.386792,8.01886792 L246.273585,8.01886792 C246.603774,8.72641509 246.698113,9.43396226 246.933962,10.1415094" id="Shape"></path>
            <path d="M27.7830189,8.06603774 L30.1886792,8.06603774 C30.2358491,11.2264151 30.1886792,14.3867925 30.1886792,17.5471698 C30.2358491,18.490566 30.4245283,19.4811321 31.0849057,20.2358491 C31.745283,21.0377358 32.8773585,21.3679245 33.8679245,21.3207547 C34.8584906,21.3679245 35.8490566,21.0377358 36.5566038,20.3301887 C37.3113208,19.5754717 37.5471698,18.490566 37.5471698,17.4528302 L37.5471698,8.11320755 L40,8.11320755 L40,17.5471698 C39.9528302,18.5849057 39.8584906,19.7169811 39.2924528,20.6132075 C38.7735849,21.6037736 37.9245283,22.3584906 36.8867925,22.8301887 C35.8962264,23.254717 34.8113208,23.4433962 33.7264151,23.3962264 C32.3113208,23.4433962 30.8490566,23.0660377 29.7169811,22.2169811 C28.8207547,21.509434 28.2075472,20.5188679 27.9245283,19.4339623 C27.5943396,18.2075472 27.7358491,16.8867925 27.6886792,15.6132075 C27.7830189,13.1132075 27.7358491,10.5660377 27.7830189,8.06603774" id="Shape"></path>
            <g id="Group" transform="translate(93.000000, 4.000000)">
                <path d="M12.4716981,9.01886792 C12.9433962,8.54716981 13.6509434,8.45283019 14.2641509,8.54716981 C14.6886792,8.64150943 15.1132075,8.9245283 15.254717,9.3490566 C15.4433962,9.91509434 15.254717,10.5754717 14.8773585,11 C14.5471698,11.4245283 14.0754717,11.754717 13.6037736,12.0377358 C13.1320755,11.6132075 12.6132075,11.1886792 12.3301887,10.6226415 C12.0943396,10.1981132 12.0471698,9.49056604 12.4716981,9.01886792" id="Shape"></path>
                <path d="M11.5283019,16.3773585 C11.8584906,15.7641509 12.4245283,15.3396226 13.0377358,14.9622642 C14.0754717,16.0471698 15.1132075,17.0377358 16.1509434,18.1226415 C15.3018868,18.7358491 14.2641509,19.0660377 13.2264151,19.0188679 C12.6603774,19.0188679 12.0943396,18.8301887 11.7169811,18.3584906 C11.1981132,17.7924528 11.1981132,16.990566 11.5283019,16.3773585" id="Shape"></path>
                <path d="M17.8490566,19.4433962 C18.4150943,19.0188679 18.9339623,18.5 19.4528302,17.9811321 C20.3490566,18.9245283 21.2924528,19.8679245 22.1415094,20.8113208 L18.5566038,20.8113208 C18.2735849,20.4339623 17.9433962,20.1037736 17.6603774,19.7735849 C17.5660377,19.5849057 17.754717,19.490566 17.8490566,19.4433962" id="Shape"></path>
                <path d="M9.5,0.29245283 C11.9528302,-0.0377358491 14.5,0.481132075 16.5283019,1.8490566 C18.2735849,2.98113208 19.6415094,4.58490566 20.3962264,6.47169811 C21.2924528,8.59433962 21.4339623,11 20.8207547,13.2641509 C20.1132075,13.3113208 19.3584906,13.2641509 18.6509434,13.2641509 C18.5566038,14.3018868 18.3207547,15.3396226 17.754717,16.2358491 C16.9056604,15.3396226 16.0566038,14.490566 15.2075472,13.6415094 C16.009434,13.0283019 16.9056604,12.509434 17.4245283,11.6132075 C18.1320755,10.4811321 18.1320755,8.87735849 17.2830189,7.79245283 C16.6698113,7.03773585 15.6792453,6.66037736 14.7358491,6.51886792 C13.6509434,6.37735849 12.4716981,6.4245283 11.4339623,6.89622642 C10.6792453,7.22641509 10.0188679,7.88679245 9.73584906,8.64150943 C9.40566038,9.58490566 9.5,10.6226415 9.9245283,11.4716981 C10.254717,12.1792453 10.8679245,12.745283 11.3867925,13.3113208 C10.4433962,13.8773585 9.54716981,14.5377358 9.0754717,15.5754717 C8.41509434,16.8490566 8.60377358,18.5 9.5,19.6320755 C9.9245283,20.1509434 10.5377358,20.5283019 11.1981132,20.7169811 C9.35849057,20.8113208 7.51886792,20.3396226 5.91509434,19.490566 C3.98113208,18.4528302 2.37735849,16.7075472 1.43396226,14.6792453 C0.490566038,12.5566038 0.254716981,10.1037736 0.867924528,7.83962264 C1.43396226,5.71698113 2.66037736,3.78301887 4.40566038,2.41509434 C5.91509434,1.33018868 7.66037736,0.575471698 9.5,0.29245283" id="Shape"></path>
            </g>
        </g>
    </g>
</svg>