<?xml version="1.0" encoding="UTF-8" standalone="no"?>
<svg width="1162px" height="240px" viewBox="0 0 1162 240" version="1.1" xmlns="http://www.w3.org/2000/svg" xmlns:xlink="http://www.w3.org/1999/xlink">
    <!-- Generator: Sketch 41.2 (35397) - http://www.bohemiancoding.com/sketch -->
    <title>TwinPoint invertiert</title>
    <desc>Created with Sketch.</desc>
    <defs></defs>
    <g id="Page-1" stroke="none" stroke-width="1" fill="none" fill-rule="evenodd">
        <g id="TwinPoint-grau" transform="translate(-103.000000, -75.000000)" fill="#FFFFFF">
            <g id="TwinPoint-invertiert" transform="translate(103.000000, 75.000000)">
                <path d="M362.61996,222.940555 L362.61996,208.467235 C362.61996,206.172355 361.967917,204.255638 360.663811,202.717025 C359.359705,201.178412 357.76872,200.383039 355.890807,200.330883 L355.890807,194.854492 C357.716556,194.802335 359.2945,194.03304 360.624688,192.546584 C361.954876,191.060127 362.61996,189.195565 362.61996,186.952841 L362.61996,172.401287 C362.61996,169.584844 363.506739,167.237842 365.280323,165.360213 C367.053907,163.482584 369.296936,162.543783 372.009476,162.543783 L377.56494,162.543783 L377.56494,168.020174 L373.417904,168.020174 C370.809692,168.020174 369.505605,169.976009 369.505605,173.887736 L369.505605,188.282822 C369.505605,190.577702 368.866603,192.559614 367.588579,194.228618 C366.310555,195.897622 364.550039,196.992889 362.306976,197.514453 L362.306976,197.670921 C364.602203,198.036016 366.37576,199.066089 367.627702,200.761171 C368.879644,202.456253 369.505605,204.581593 369.505605,207.137255 L369.505605,221.062935 C369.505605,223.097034 369.818586,224.622585 370.444557,225.639634 C371.070528,226.656683 372.087715,227.1652 373.49615,227.1652 L377.56494,227.1652 L377.56494,232.641591 L371.618246,232.641591 C370.053319,232.641591 368.579702,232.224346 367.197349,231.389845 C365.814997,230.555343 364.706524,229.394881 363.871896,227.908424 C363.037268,226.421968 362.61996,224.766028 362.61996,222.940555 Z M416.971099,216.681822 C419.109833,216.681822 420.896431,216.199383 422.330948,215.23449 C423.765464,214.269598 424.482712,212.848358 424.482712,210.970729 C424.482712,209.771132 423.961077,208.649787 422.917792,207.60666 C421.874508,206.563532 419.996623,205.442187 417.284083,204.242591 C413.423929,202.521431 410.776634,200.787257 409.342117,199.040019 C407.907601,197.292781 407.190353,195.29783 407.190353,193.055106 C407.190353,189.091222 408.50748,186.066198 411.141775,183.979943 C413.776069,181.893688 417.153652,180.850577 421.274627,180.850577 C422.839554,180.850577 424.326213,180.980966 425.734647,181.241748 C427.143082,181.502529 428.707985,181.893696 430.429405,182.41526 L429.803438,188.830461 C429.073138,188.361054 427.834256,187.904692 426.086754,187.461363 C424.339252,187.018034 422.996043,186.796373 422.057087,186.796373 C419.970517,186.796373 418.275205,187.226657 416.971099,188.087237 C415.666993,188.947817 415.01495,190.134356 415.01495,191.646891 C415.01495,193.159426 415.61483,194.424199 416.814607,195.441248 C418.014385,196.458297 419.996596,197.566603 422.761301,198.7662 C426.20414,200.278734 428.655823,201.895557 430.116421,203.616718 C431.57702,205.337878 432.307308,207.528412 432.307308,210.188387 C432.307308,213.943645 431.029304,216.955631 428.473256,219.224433 C425.917208,221.493235 422.526584,222.627619 418.30128,222.627619 C413.762992,222.627619 410.137632,221.89744 407.425091,220.437062 L407.816321,213.865393 C409.016098,214.647738 410.515798,215.312722 412.315464,215.860364 C414.11513,216.408005 415.666993,216.681822 416.971099,216.681822 Z M440.429985,201.739098 C440.429985,197.723057 441.277641,194.124322 442.972979,190.942783 C444.668317,187.761245 447.054795,185.283855 450.132485,183.510538 C453.210175,181.737222 456.75729,180.850577 460.773936,180.850577 C464.63409,180.850577 468.10296,181.724183 471.18065,183.471421 C474.25834,185.218659 476.6709,187.669972 478.418402,190.825432 C480.165904,193.980893 481.039642,197.618745 481.039642,201.739098 C481.039642,205.494356 480.191985,208.962703 478.496648,212.144241 C476.80131,215.325779 474.401791,217.868364 471.298019,219.772072 C468.194247,221.675779 464.660172,222.627619 460.69569,222.627619 C456.887701,222.627619 453.431872,221.701857 450.3281,219.850306 C447.224328,217.998755 444.798727,215.469209 443.051225,212.261592 C441.303723,209.053976 440.429985,205.546512 440.429985,201.739098 Z M473.215045,201.739098 C473.215045,199.079123 472.706451,196.601733 471.689249,194.306852 C470.672046,192.011972 469.211469,190.186527 467.307474,188.830461 C465.40348,187.474396 463.199574,186.796373 460.69569,186.796373 C458.243971,186.796373 456.066147,187.500473 454.162152,188.908695 C452.258157,190.316917 450.797581,192.155402 449.780378,194.424204 C448.763175,196.693006 448.254582,199.131279 448.254582,201.739098 C448.254582,204.399072 448.737094,206.863424 449.702132,209.132226 C450.66717,211.401028 452.088625,213.226473 453.966537,214.608617 C455.84445,215.990761 458.11356,216.681822 460.773936,216.681822 C463.382148,216.681822 465.625177,215.990761 467.503089,214.608617 C469.381002,213.226473 470.802456,211.401028 471.767495,209.132226 C472.732533,206.863424 473.215045,204.399072 473.215045,201.739098 Z M488.145121,187.735183 L488.145121,181.789387 L497.534637,181.789387 L497.534637,177.877679 C497.534637,172.453416 498.551824,168.463514 500.586229,165.907852 C502.620634,163.35219 506.063423,162.074378 510.914697,162.074378 C512.323131,162.074378 513.96628,162.230845 515.844193,162.543783 L515.531209,168.489579 C514.644417,168.176641 513.470739,168.020174 512.01014,168.020174 C509.401928,168.020174 507.563167,168.711236 506.4938,170.09338 C505.424433,171.475523 504.889757,173.731253 504.889757,176.860635 L504.889757,181.789387 L515.452963,181.789387 L515.452963,187.735183 L504.889757,187.735183 L504.889757,221.688809 L497.534637,221.688809 L497.534637,187.735183 L488.145121,187.735183 Z M540.555014,222.627619 C536.538368,222.627619 533.499846,221.623623 531.439359,219.615603 C529.378872,217.607583 528.348643,214.778143 528.348643,211.127197 L528.348643,187.735183 L519.350357,187.735183 L519.350357,181.789387 L528.348643,181.789387 L528.348643,172.557756 L535.703764,170.210731 L535.703764,181.789387 L546.26697,181.789387 L546.26697,187.735183 L535.703764,187.735183 L535.703764,209.718982 C535.703764,211.648768 536.25148,213.291669 537.346929,214.647734 C538.442378,216.0038 539.955119,216.681822 541.885196,216.681822 C543.710944,216.681822 545.380174,216.212422 546.892937,215.273607 L546.892937,221.53234 C544.284725,222.262529 542.172105,222.627619 540.555014,222.627619 Z M583.497146,188.204588 L573.403416,221.688809 L564.874606,221.688809 L552.042267,181.789387 L560.101602,181.789387 L569.25638,214.804202 L569.412872,214.804202 L579.584847,181.789387 L588.27015,181.789387 L598.285633,214.804202 L598.442125,214.804202 L608.144625,181.789387 L615.343254,181.789387 L602.510916,221.688809 L593.982105,221.688809 L583.653638,188.204588 L583.497146,188.204588 Z M648.739378,216.525354 C647.330943,218.507296 645.557386,220.019808 643.418652,221.062935 C641.279918,222.106063 638.906481,222.627619 636.298269,222.627619 C631.655652,222.627619 628.069414,221.558429 625.539449,219.420018 C623.009483,217.281607 621.744519,214.204427 621.744519,210.188387 C621.744519,206.068034 623.505036,202.847427 627.026122,200.526468 C630.547208,198.20551 635.150633,197.045048 640.836535,197.045048 C643.496911,197.045048 645.922512,197.097204 648.11341,197.201516 C648.11341,193.550571 647.343999,190.903675 645.805154,189.260749 C644.266309,187.617823 641.749422,186.796373 638.254418,186.796373 C636.220013,186.796373 634.172597,187.148423 632.11211,187.852534 C630.051622,188.556645 628.238942,189.56064 626.674015,190.864549 L626.282785,184.605816 C630.508089,182.102311 634.889819,180.850577 639.428108,180.850577 C644.905353,180.850577 648.948021,182.180544 651.556232,184.840519 C654.164444,187.500494 655.468531,191.646863 655.468531,197.27975 L655.468531,214.804202 C655.468531,217.724959 655.572858,220.019805 655.781515,221.688809 L648.89587,221.688809 L648.89587,216.525354 L648.739378,216.525354 Z M643.340406,202.521439 C639.062938,202.521439 635.698396,203.173384 633.246676,204.477293 C630.794957,205.781202 629.569116,207.684881 629.569116,210.188387 C629.569116,212.066016 630.312445,213.617645 631.799126,214.84332 C633.285807,216.068994 635.046323,216.681822 637.080729,216.681822 C640.471404,216.681822 643.157822,215.716944 645.140063,213.787158 C647.122304,211.857373 648.11341,209.327827 648.11341,206.198445 L648.11341,202.677908 C647.74826,202.677908 647.096217,202.65183 646.157261,202.599673 C645.218305,202.547517 644.279362,202.521439 643.340406,202.521439 Z M676.658284,181.789387 L676.658284,187.969885 L676.814776,187.969885 C677.805896,185.831474 679.266473,184.11034 681.19655,182.806431 C683.126627,181.502522 685.161001,180.850577 687.299735,180.850577 C688.812498,180.850577 690.403484,181.033121 692.072739,181.398216 L692.072739,187.969885 C690.925126,187.500478 689.568876,187.265778 688.003949,187.265778 C684.665438,187.265778 682.018142,188.752212 680.061983,191.725125 C678.105824,194.698038 677.12776,198.635785 677.12776,203.538483 L677.12776,221.688809 L669.772639,221.688809 L669.772639,181.789387 L676.658284,181.789387 Z M720.148137,222.627619 C713.41895,222.627619 708.28085,220.763056 704.733682,217.033876 C701.186514,213.304696 699.412956,207.971787 699.412956,201.03499 C699.412956,197.071106 700.195408,193.563643 701.760335,190.512496 C703.325262,187.461348 705.529168,185.088269 708.372119,183.393187 C711.21507,181.698105 714.462245,180.850577 718.113742,180.850577 C729.850696,180.850577 735.719084,188.360981 735.719084,203.382015 L707.237553,203.382015 C707.237553,205.989833 707.850473,208.297718 709.076333,210.305738 C710.302192,212.313758 711.906219,213.878426 713.88846,214.999788 C715.870701,216.12115 718.035484,216.681822 720.382875,216.681822 C722.41728,216.681822 724.647268,216.277617 727.072905,215.469193 C729.498542,214.660769 731.363386,213.735007 732.667492,212.69188 L732.667492,220.045891 C730.05928,221.089019 727.816251,221.78008 725.938339,222.119096 C724.060426,222.458113 722.130378,222.627619 720.148137,222.627619 Z M717.879004,186.796373 C714.957807,186.796373 712.558288,187.787329 710.680375,189.769271 C708.802463,191.751213 707.654867,194.463304 707.237553,197.905624 L727.894488,197.905624 C727.842324,194.619773 726.929463,191.946799 725.155879,189.886622 C723.382295,187.826446 720.956694,186.796373 717.879004,186.796373 Z M785.453711,221.688809 C781.802214,221.688809 778.685448,220.789125 776.103318,218.98973 C773.521188,217.190335 771.59114,214.804217 770.313117,211.831304 C769.035093,208.858391 768.39609,205.598667 768.39609,202.052034 C768.39609,198.348932 769.100297,194.880586 770.508732,191.646891 C771.917166,188.413196 773.964582,185.805417 776.65104,183.823475 C779.337498,181.841533 782.53251,180.850577 786.236171,180.850577 C792.704536,180.850577 797.086267,183.145423 799.381493,187.735183 L799.537985,187.735183 L799.537985,181.789387 L806.345384,181.789387 L806.345384,220.045891 C806.345384,226.252499 804.650072,230.972579 801.259396,234.206274 C797.868721,237.439969 792.704539,239.056792 785.766695,239.056792 C783.314976,239.056792 781.058906,238.84817 778.998419,238.430919 C776.937931,238.013668 774.421045,237.309568 771.447683,236.318597 L772.230143,229.512225 C775.203504,230.920447 777.720391,231.872286 779.780879,232.367772 C781.841366,232.863257 784.097435,233.110996 786.549155,233.110996 C790.461473,233.110996 793.513035,231.88534 795.703933,229.43399 C797.894831,226.982641 798.990263,223.644684 798.990263,219.420018 L798.990263,215.50831 L798.833771,215.50831 C797.321008,217.490252 795.37792,219.015803 793.004447,220.085008 C790.630974,221.154214 788.114087,221.688809 785.453711,221.688809 Z M798.990263,202.130268 C798.990263,197.749134 797.973076,194.098243 795.938671,191.177486 C793.904265,188.256729 791.035275,186.796373 787.331614,186.796373 C785.036388,186.796373 783.054177,187.513512 781.384921,188.947812 C779.715665,190.382113 778.437661,192.233636 777.550869,194.502438 C776.664076,196.77124 776.220687,199.157358 776.220687,201.660863 C776.220687,204.268682 776.690158,206.641761 777.629114,208.780172 C778.568071,210.918583 779.872157,212.61364 781.541413,213.865393 C783.210668,215.117145 785.140716,215.743012 787.331614,215.743012 C789.470348,215.743012 791.426478,215.156262 793.200062,213.982744 C794.973646,212.809226 796.382059,211.192402 797.425344,209.132226 C798.468629,207.072049 798.990263,204.738087 798.990263,202.130268 Z M863.450036,186.796373 C860.05936,186.796373 857.464228,188.178496 855.664562,190.942783 C853.864896,193.707071 852.965076,197.279729 852.965076,201.660863 L852.965076,221.688809 L845.609955,221.688809 L845.609955,197.749155 C845.609955,194.358992 845.023116,191.686018 843.849421,189.730154 C842.675726,187.77429 840.889127,186.796373 838.489572,186.796373 C835.151061,186.796373 832.56897,188.178496 830.743222,190.942783 C828.917473,193.707071 828.004613,197.253651 828.004613,201.582629 L828.004613,221.688809 L820.649492,221.688809 L820.649492,181.789387 L827.535137,181.789387 L827.535137,187.578715 L827.691629,187.578715 C829.152228,185.231678 830.899703,183.523583 832.934109,182.454377 C834.968514,181.385172 837.446278,180.850577 840.367476,180.850577 C842.923523,180.850577 845.218715,181.528599 847.253121,182.884665 C849.287526,184.240731 850.774184,186.144409 851.713141,188.595759 C852.80859,186.248722 854.529984,184.371121 856.877375,182.962899 C859.224765,181.554677 861.650366,180.850577 864.154249,180.850577 C868.640374,180.850577 872.05708,182.154466 874.404471,184.762285 C876.751862,187.370103 877.925539,191.151383 877.925539,196.106238 L877.925539,221.688809 L870.570419,221.688809 L870.570419,197.749155 C870.570419,194.306835 869.970539,191.620823 868.770761,189.691037 C867.570984,187.761251 865.797426,186.796373 863.450036,186.796373 Z M899.506522,163.013188 L899.506522,187.265778 L899.663014,187.265778 C902.32339,182.988956 906.731202,180.850577 912.886583,180.850577 C916.485915,180.850577 919.589641,181.737222 922.197853,183.510538 C924.806064,185.283855 926.775235,187.696051 928.105423,190.747198 C929.435611,193.798346 930.100695,197.227575 930.100695,201.03499 C930.100695,204.946718 929.474734,208.532414 928.222792,211.792187 C926.97085,215.05196 925.053843,217.672778 922.471713,219.65472 C919.889584,221.636662 916.720654,222.627619 912.964828,222.627619 C910.095795,222.627619 907.461541,222.053907 905.061986,220.906467 C902.662431,219.759027 900.758465,218.142204 899.35003,216.055949 L899.193538,216.055949 L899.193538,221.688809 L892.151401,221.688809 L892.151401,163.013188 L899.506522,163.013188 Z M922.276098,201.504395 C922.276098,196.966791 921.311075,193.381095 919.380998,190.747198 C917.450921,188.113302 914.738421,186.796373 911.243417,186.796373 C908.791698,186.796373 906.679078,187.500473 904.905494,188.908695 C903.13191,190.316917 901.788701,192.168441 900.875827,194.463321 C899.962952,196.758201 899.506522,199.209513 899.506522,201.817332 C899.506522,204.268681 899.936871,206.64176 900.797581,208.93664 C901.658291,211.231521 902.975418,213.096083 904.749002,214.530383 C906.522586,215.964683 908.68737,216.681822 911.243417,216.681822 C913.538644,216.681822 915.520855,215.977722 917.190111,214.5695 C918.859366,213.161278 920.12433,211.296716 920.98504,208.975758 C921.84575,206.654799 922.276098,204.16437 922.276098,201.504395 Z M961.071194,186.796373 C956.950219,186.796373 953.937779,188.361041 952.033785,191.490423 C950.12979,194.619805 949.177807,198.45324 949.177807,202.990844 L949.177807,221.688809 L941.822686,221.688809 L941.822686,163.013188 L949.177807,163.013188 L949.177807,187.50048 L949.334299,187.50048 C950.690569,185.362069 952.477167,183.719168 954.694148,182.571728 C956.911128,181.424288 959.401933,180.850577 962.166637,180.850577 C967.12224,180.850577 970.851927,182.323972 973.355811,185.270807 C975.859694,188.217642 977.111617,192.455283 977.111617,197.983858 L977.111617,221.688809 L969.756496,221.688809 L969.756496,200.722054 C969.756496,196.18445 969.117494,192.729142 967.83947,190.356027 C966.561446,187.982913 964.305377,186.796373 961.071194,186.796373 Z M1014.48338,227.1652 C1017.09159,227.1652 1018.39568,225.209365 1018.39568,221.297638 L1018.39568,206.902552 C1018.39568,204.607672 1019.03468,202.62576 1020.31271,200.956756 C1021.59073,199.287752 1023.35125,198.192485 1025.59431,197.670921 L1025.59431,197.514453 C1023.29908,197.149358 1021.52552,196.119286 1020.27358,194.424204 C1019.02164,192.729122 1018.39568,190.603782 1018.39568,188.04812 L1018.39568,174.122439 C1018.39568,172.088341 1018.0827,170.56279 1017.45673,169.545741 C1016.83076,168.528691 1015.81357,168.020174 1014.40514,168.020174 L1010.33634,168.020174 L1010.33634,162.543783 L1016.28304,162.543783 C1017.84797,162.543783 1019.32158,162.961028 1020.70394,163.79553 C1022.08629,164.630032 1023.19476,165.790493 1024.02939,167.27695 C1024.86402,168.763406 1025.28132,170.419346 1025.28132,172.244819 L1025.28132,186.718139 C1025.28132,189.013019 1025.93337,190.929737 1027.23747,192.46835 C1028.54158,194.006962 1030.13256,194.802335 1032.01048,194.854492 L1032.01048,200.330883 C1030.18473,200.383039 1028.60678,201.152334 1027.2766,202.63879 C1025.94641,204.125247 1025.28132,205.989809 1025.28132,208.232533 L1025.28132,222.784087 C1025.28132,225.600531 1024.39455,227.947532 1022.62096,229.825161 C1020.84738,231.702791 1018.60435,232.641591 1015.89181,232.641591 L1010.33634,232.641591 L1010.33634,227.1652 L1014.48338,227.1652 Z" id="{-software-gmbh-}" fill-opacity="0.8"></path>
                <path d="M944.445389,2.97105923 C944.445389,2.97105923 993.105062,119.963235 1006.85267,110.824318 C1020.60027,101.685402 1007.26596,2.97105923 1007.26596,2.97105923 L1034.95661,2.97105923 C1034.95661,2.97105923 1050.63861,145.874279 1012.19973,145.874279 C973.760844,145.874279 944.445389,53.804503 944.445389,53.804503 L944.445389,2.97105923 Z M930.652774,2.47938527 L930.652774,146.696962 L901.722247,146.696962 L901.722247,2.47938527 L930.652774,2.47938527 Z M597.671221,2.47938527 C616.958335,2.47938527 631.69898,6.12955485 641.893597,13.4300035 C652.088215,20.7304522 657.185447,31.6120898 657.185447,46.0752429 C657.185447,60.9516288 652.398182,72.3153643 642.823507,80.1667903 C633.248833,88.0182162 619.644733,91.9438703 602.0108,91.9438703 L589.405356,91.9438703 L589.405356,146.696962 L560.47483,146.696962 L560.47483,2.47938527 L597.671221,2.47938527 Z M627.015041,47.7281664 C627.015041,40.2899734 624.604188,34.6769768 619.782409,30.8890081 C614.960631,27.1010395 608.210242,25.2070835 599.531041,25.2070835 L589.405356,25.2070835 L589.405356,69.216172 L599.117747,69.216172 C617.716036,69.216172 627.015041,62.0535751 627.015041,47.7281664 Z M675.744282,74.1749425 C675.744282,59.0230679 678.568424,45.8686832 684.216793,34.7113937 C689.865162,23.5541042 697.993181,14.9796493 708.601094,8.98777159 C719.209007,2.9958939 731.814324,0 746.417425,0 C760.469465,0 772.833698,2.96145834 783.510493,8.88446387 C794.187288,14.8074694 802.45307,23.3474888 808.308087,34.5047783 C814.163104,45.6620678 817.090568,58.8853236 817.090568,74.1749425 C817.090568,89.4645615 814.197545,102.82556 808.41141,114.258338 C802.625276,125.691116 794.393935,134.368877 783.717139,140.291883 C773.040344,146.214888 760.60723,149.176347 746.417425,149.176347 C731.676559,149.176347 719.00236,146.146017 708.394447,140.085268 C697.786534,134.024518 689.692956,125.346756 684.11347,114.051722 C678.533983,102.756688 675.744282,89.4645615 675.744282,74.1749425 Z M786.920162,74.1749425 C786.920162,64.9460735 785.439209,56.4404896 782.47726,48.6579358 C779.51531,40.8753821 774.96913,34.6081098 768.838583,29.8559309 C762.708036,25.1037521 755.16551,22.7276983 746.210778,22.7276983 C737.807107,22.7276983 730.574548,24.9660098 724.512883,29.4427 C718.451219,33.9193903 713.836157,40.0833559 710.66756,47.9347818 C707.498963,55.7862077 705.914688,64.5328405 705.914688,74.1749425 C705.914688,89.8777944 709.427645,102.515646 716.453665,112.088876 C723.479685,121.662105 733.467505,126.448649 746.417425,126.448649 C759.367344,126.448649 769.355164,121.662105 776.381185,112.088876 C783.407205,102.515646 786.920162,89.8777944 786.920162,74.1749425 Z M874.91226,2.47938527 L874.91226,146.696962 L845.981734,146.696962 L845.981734,2.47938527 L874.91226,2.47938527 Z M1049.86322,25.2070835 L1049.86322,2.47938527 L1161.4524,2.47938527 L1161.4524,25.2070835 L1120.12307,25.2070835 L1120.12307,146.696962 L1091.19255,146.696962 L1091.19255,25.2070835 L1049.86322,25.2070835 Z" id="Combined-Shape" fill-opacity="0.8"></path>
                <path d="M443.855951,2.97105923 C443.855951,2.97105923 492.515625,119.963235 506.26323,110.824318 C520.010836,101.685402 506.676523,2.97105923 506.676523,2.97105923 L534.36717,2.97105923 C534.36717,2.97105923 550.049172,145.874279 511.610289,145.874279 C473.171406,145.874279 443.855951,53.804503 443.855951,53.804503 L443.855951,2.97105923 Z M430.063336,2.47938527 L430.063336,146.696962 L401.13281,146.696962 L401.13281,2.47938527 L430.063336,2.47938527 Z M0,25.2070835 L0,2.47938527 L111.589174,2.47938527 L111.589174,25.2070835 L70.2598501,25.2070835 L70.2598501,146.696962 L41.3293236,146.696962 L41.3293236,25.2070835 L0,25.2070835 Z M221.485813,31.4055467 L195.861633,146.696962 L158.458595,146.696962 L120.22897,2.47938527 L150.606023,2.47938527 L177.470084,117.7708 L177.883377,117.7708 L202.474324,2.47938527 L241.737182,2.47938527 L267.154716,117.7708 L267.568009,117.7708 L294.638716,2.47938527 L322.742656,2.47938527 L285.132972,146.696962 L247.93658,146.696962 L221.899107,31.4055467 L221.485813,31.4055467 Z M372.918423,2.47938527 L372.918423,146.696962 L343.987897,146.696962 L343.987897,2.47938527 L372.918423,2.47938527 Z" id="Combined-Shape"></path>
            </g>
        </g>
    </g>
</svg>